<?xml version="1.0"?><svg xmlns="http://www.w3.org/2000/svg" width="508" height="587"><rect x="0" y="0" width="100%" height="100%" fill="rgb(223, 230, 233)" /><polyline points="0,48.95930282728,28.266666666667,0,84.8,0,113.06666666667,48.95930282728,84.8,97.918605654561,28.266666666667,97.918605654561,0,48.95930282728" stroke="#000" stroke-opacity="0.02" fill-opacity="0.14133333333333" fill="#ddd" transform="translate(-56.533333333333, -48.95930282728)" /><polyline points="0,48.95930282728,28.266666666667,0,84.8,0,113.06666666667,48.95930282728,84.8,97.918605654561,28.266666666667,97.918605654561,0,48.95930282728" stroke="#000" stroke-opacity="0.02" fill-opacity="0.14133333333333" fill="#ddd" transform="translate(452.26666666667, -48.95930282728)" /><polyline points="0,48.95930282728,28.266666666667,0,84.8,0,113.06666666667,48.95930282728,84.8,97.918605654561,28.266666666667,97.918605654561,0,48.95930282728" stroke="#000" stroke-opacity="0.02" fill-opacity="0.14133333333333" fill="#ddd" transform="translate(-56.533333333333, 538.55233110008)" /><polyline points="0,48.95930282728,28.266666666667,0,84.8,0,113.06666666667,48.95930282728,84.8,97.918605654561,28.266666666667,97.918605654561,0,48.95930282728" stroke="#000" stroke-opacity="0.02" fill-opacity="0.14133333333333" fill="#ddd" transform="translate(452.26666666667, 538.55233110008)" /><polyline points="0,48.95930282728,28.266666666667,0,84.8,0,113.06666666667,48.95930282728,84.8,97.918605654561,28.266666666667,97.918605654561,0,48.95930282728" stroke="#000" stroke-opacity="0.02" fill-opacity="0.02" fill="#ddd" transform="translate(28.266666666667, 0)" /><polyline points="0,48.95930282728,28.266666666667,0,84.8,0,113.06666666667,48.95930282728,84.8,97.918605654561,28.266666666667,97.918605654561,0,48.95930282728" stroke="#000" stroke-opacity="0.02" fill-opacity="0.02" fill="#ddd" transform="translate(28.266666666667, 587.51163392736)" /><polyline points="0,48.95930282728,28.266666666667,0,84.8,0,113.06666666667,48.95930282728,84.8,97.918605654561,28.266666666667,97.918605654561,0,48.95930282728" stroke="#000" stroke-opacity="0.02" fill-opacity="0.15" fill="#222" transform="translate(113.06666666667, -48.95930282728)" /><polyline points="0,48.95930282728,28.266666666667,0,84.8,0,113.06666666667,48.95930282728,84.8,97.918605654561,28.266666666667,97.918605654561,0,48.95930282728" stroke="#000" stroke-opacity="0.02" fill-opacity="0.15" fill="#222" transform="translate(113.06666666667, 538.55233110008)" /><polyline points="0,48.95930282728,28.266666666667,0,84.8,0,113.06666666667,48.95930282728,84.8,97.918605654561,28.266666666667,97.918605654561,0,48.95930282728" stroke="#000" stroke-opacity="0.02" fill-opacity="0.02" fill="#ddd" transform="translate(197.86666666667, 0)" /><polyline points="0,48.95930282728,28.266666666667,0,84.8,0,113.06666666667,48.95930282728,84.8,97.918605654561,28.266666666667,97.918605654561,0,48.95930282728" stroke="#000" stroke-opacity="0.02" fill-opacity="0.02" fill="#ddd" transform="translate(197.86666666667, 587.51163392736)" /><polyline points="0,48.95930282728,28.266666666667,0,84.8,0,113.06666666667,48.95930282728,84.8,97.918605654561,28.266666666667,97.918605654561,0,48.95930282728" stroke="#000" stroke-opacity="0.02" fill-opacity="0.063333333333333" fill="#222" transform="translate(282.66666666667, -48.95930282728)" /><polyline points="0,48.95930282728,28.266666666667,0,84.8,0,113.06666666667,48.95930282728,84.8,97.918605654561,28.266666666667,97.918605654561,0,48.95930282728" stroke="#000" stroke-opacity="0.02" fill-opacity="0.063333333333333" fill="#222" transform="translate(282.66666666667, 538.55233110008)" /><polyline points="0,48.95930282728,28.266666666667,0,84.8,0,113.06666666667,48.95930282728,84.8,97.918605654561,28.266666666667,97.918605654561,0,48.95930282728" stroke="#000" stroke-opacity="0.02" fill-opacity="0.14133333333333" fill="#ddd" transform="translate(367.46666666667, 0)" /><polyline points="0,48.95930282728,28.266666666667,0,84.8,0,113.06666666667,48.95930282728,84.8,97.918605654561,28.266666666667,97.918605654561,0,48.95930282728" stroke="#000" stroke-opacity="0.02" fill-opacity="0.14133333333333" fill="#ddd" transform="translate(367.46666666667, 587.51163392736)" /><polyline points="0,48.95930282728,28.266666666667,0,84.8,0,113.06666666667,48.95930282728,84.8,97.918605654561,28.266666666667,97.918605654561,0,48.95930282728" stroke="#000" stroke-opacity="0.02" fill-opacity="0.13266666666667" fill="#222" transform="translate(-56.533333333333, 48.95930282728)" /><polyline points="0,48.95930282728,28.266666666667,0,84.8,0,113.06666666667,48.95930282728,84.8,97.918605654561,28.266666666667,97.918605654561,0,48.95930282728" stroke="#000" stroke-opacity="0.02" fill-opacity="0.13266666666667" fill="#222" transform="translate(452.26666666667, 48.95930282728)" /><polyline points="0,48.95930282728,28.266666666667,0,84.8,0,113.06666666667,48.95930282728,84.8,97.918605654561,28.266666666667,97.918605654561,0,48.95930282728" stroke="#000" stroke-opacity="0.02" fill-opacity="0.054666666666667" fill="#ddd" transform="translate(28.266666666667, 97.918605654561)" /><polyline points="0,48.95930282728,28.266666666667,0,84.8,0,113.06666666667,48.95930282728,84.8,97.918605654561,28.266666666667,97.918605654561,0,48.95930282728" stroke="#000" stroke-opacity="0.02" fill-opacity="0.15" fill="#222" transform="translate(113.06666666667, 48.95930282728)" /><polyline points="0,48.95930282728,28.266666666667,0,84.8,0,113.06666666667,48.95930282728,84.8,97.918605654561,28.266666666667,97.918605654561,0,48.95930282728" stroke="#000" stroke-opacity="0.02" fill-opacity="0.13266666666667" fill="#222" transform="translate(197.86666666667, 97.918605654561)" /><polyline points="0,48.95930282728,28.266666666667,0,84.8,0,113.06666666667,48.95930282728,84.8,97.918605654561,28.266666666667,97.918605654561,0,48.95930282728" stroke="#000" stroke-opacity="0.02" fill-opacity="0.054666666666667" fill="#ddd" transform="translate(282.66666666667, 48.95930282728)" /><polyline points="0,48.95930282728,28.266666666667,0,84.8,0,113.06666666667,48.95930282728,84.8,97.918605654561,28.266666666667,97.918605654561,0,48.95930282728" stroke="#000" stroke-opacity="0.02" fill-opacity="0.15" fill="#222" transform="translate(367.46666666667, 97.918605654561)" /><polyline points="0,48.95930282728,28.266666666667,0,84.8,0,113.06666666667,48.95930282728,84.8,97.918605654561,28.266666666667,97.918605654561,0,48.95930282728" stroke="#000" stroke-opacity="0.02" fill-opacity="0.15" fill="#222" transform="translate(-56.533333333333, 146.87790848184)" /><polyline points="0,48.95930282728,28.266666666667,0,84.8,0,113.06666666667,48.95930282728,84.8,97.918605654561,28.266666666667,97.918605654561,0,48.95930282728" stroke="#000" stroke-opacity="0.02" fill-opacity="0.15" fill="#222" transform="translate(452.26666666667, 146.87790848184)" /><polyline points="0,48.95930282728,28.266666666667,0,84.8,0,113.06666666667,48.95930282728,84.8,97.918605654561,28.266666666667,97.918605654561,0,48.95930282728" stroke="#000" stroke-opacity="0.02" fill-opacity="0.11533333333333" fill="#222" transform="translate(28.266666666667, 195.83721130912)" /><polyline points="0,48.95930282728,28.266666666667,0,84.8,0,113.06666666667,48.95930282728,84.8,97.918605654561,28.266666666667,97.918605654561,0,48.95930282728" stroke="#000" stroke-opacity="0.02" fill-opacity="0.028666666666667" fill="#222" transform="translate(113.06666666667, 146.87790848184)" /><polyline points="0,48.95930282728,28.266666666667,0,84.8,0,113.06666666667,48.95930282728,84.8,97.918605654561,28.266666666667,97.918605654561,0,48.95930282728" stroke="#000" stroke-opacity="0.02" fill-opacity="0.10666666666667" fill="#ddd" transform="translate(197.86666666667, 195.83721130912)" /><polyline points="0,48.95930282728,28.266666666667,0,84.8,0,113.06666666667,48.95930282728,84.8,97.918605654561,28.266666666667,97.918605654561,0,48.95930282728" stroke="#000" stroke-opacity="0.02" fill-opacity="0.15" fill="#222" transform="translate(282.66666666667, 146.87790848184)" /><polyline points="0,48.95930282728,28.266666666667,0,84.8,0,113.06666666667,48.95930282728,84.8,97.918605654561,28.266666666667,97.918605654561,0,48.95930282728" stroke="#000" stroke-opacity="0.02" fill-opacity="0.028666666666667" fill="#222" transform="translate(367.46666666667, 195.83721130912)" /><polyline points="0,48.95930282728,28.266666666667,0,84.8,0,113.06666666667,48.95930282728,84.8,97.918605654561,28.266666666667,97.918605654561,0,48.95930282728" stroke="#000" stroke-opacity="0.02" fill-opacity="0.080666666666667" fill="#222" transform="translate(-56.533333333333, 244.7965141364)" /><polyline points="0,48.95930282728,28.266666666667,0,84.8,0,113.06666666667,48.95930282728,84.8,97.918605654561,28.266666666667,97.918605654561,0,48.95930282728" stroke="#000" stroke-opacity="0.02" fill-opacity="0.080666666666667" fill="#222" transform="translate(452.26666666667, 244.7965141364)" /><polyline points="0,48.95930282728,28.266666666667,0,84.8,0,113.06666666667,48.95930282728,84.8,97.918605654561,28.266666666667,97.918605654561,0,48.95930282728" stroke="#000" stroke-opacity="0.02" fill-opacity="0.11533333333333" fill="#222" transform="translate(28.266666666667, 293.75581696368)" /><polyline points="0,48.95930282728,28.266666666667,0,84.8,0,113.06666666667,48.95930282728,84.8,97.918605654561,28.266666666667,97.918605654561,0,48.95930282728" stroke="#000" stroke-opacity="0.02" fill-opacity="0.063333333333333" fill="#222" transform="translate(113.06666666667, 244.7965141364)" /><polyline points="0,48.95930282728,28.266666666667,0,84.8,0,113.06666666667,48.95930282728,84.8,97.918605654561,28.266666666667,97.918605654561,0,48.95930282728" stroke="#000" stroke-opacity="0.02" fill-opacity="0.063333333333333" fill="#222" transform="translate(197.86666666667, 293.75581696368)" /><polyline points="0,48.95930282728,28.266666666667,0,84.8,0,113.06666666667,48.95930282728,84.8,97.918605654561,28.266666666667,97.918605654561,0,48.95930282728" stroke="#000" stroke-opacity="0.02" fill-opacity="0.098" fill="#222" transform="translate(282.66666666667, 244.7965141364)" /><polyline points="0,48.95930282728,28.266666666667,0,84.8,0,113.06666666667,48.95930282728,84.8,97.918605654561,28.266666666667,97.918605654561,0,48.95930282728" stroke="#000" stroke-opacity="0.02" fill-opacity="0.054666666666667" fill="#ddd" transform="translate(367.46666666667, 293.75581696368)" /><polyline points="0,48.95930282728,28.266666666667,0,84.8,0,113.06666666667,48.95930282728,84.8,97.918605654561,28.266666666667,97.918605654561,0,48.95930282728" stroke="#000" stroke-opacity="0.02" fill-opacity="0.089333333333333" fill="#ddd" transform="translate(-56.533333333333, 342.71511979096)" /><polyline points="0,48.95930282728,28.266666666667,0,84.8,0,113.06666666667,48.95930282728,84.8,97.918605654561,28.266666666667,97.918605654561,0,48.95930282728" stroke="#000" stroke-opacity="0.02" fill-opacity="0.089333333333333" fill="#ddd" transform="translate(452.26666666667, 342.71511979096)" /><polyline points="0,48.95930282728,28.266666666667,0,84.8,0,113.06666666667,48.95930282728,84.8,97.918605654561,28.266666666667,97.918605654561,0,48.95930282728" stroke="#000" stroke-opacity="0.02" fill-opacity="0.028666666666667" fill="#222" transform="translate(28.266666666667, 391.67442261824)" /><polyline points="0,48.95930282728,28.266666666667,0,84.8,0,113.06666666667,48.95930282728,84.8,97.918605654561,28.266666666667,97.918605654561,0,48.95930282728" stroke="#000" stroke-opacity="0.02" fill-opacity="0.080666666666667" fill="#222" transform="translate(113.06666666667, 342.71511979096)" /><polyline points="0,48.95930282728,28.266666666667,0,84.8,0,113.06666666667,48.95930282728,84.8,97.918605654561,28.266666666667,97.918605654561,0,48.95930282728" stroke="#000" stroke-opacity="0.02" fill-opacity="0.046" fill="#222" transform="translate(197.86666666667, 391.67442261824)" /><polyline points="0,48.95930282728,28.266666666667,0,84.8,0,113.06666666667,48.95930282728,84.8,97.918605654561,28.266666666667,97.918605654561,0,48.95930282728" stroke="#000" stroke-opacity="0.02" fill-opacity="0.11533333333333" fill="#222" transform="translate(282.66666666667, 342.71511979096)" /><polyline points="0,48.95930282728,28.266666666667,0,84.8,0,113.06666666667,48.95930282728,84.8,97.918605654561,28.266666666667,97.918605654561,0,48.95930282728" stroke="#000" stroke-opacity="0.02" fill-opacity="0.15" fill="#222" transform="translate(367.46666666667, 391.67442261824)" /><polyline points="0,48.95930282728,28.266666666667,0,84.8,0,113.06666666667,48.95930282728,84.8,97.918605654561,28.266666666667,97.918605654561,0,48.95930282728" stroke="#000" stroke-opacity="0.02" fill-opacity="0.14133333333333" fill="#ddd" transform="translate(-56.533333333333, 440.63372544552)" /><polyline points="0,48.95930282728,28.266666666667,0,84.8,0,113.06666666667,48.95930282728,84.8,97.918605654561,28.266666666667,97.918605654561,0,48.95930282728" stroke="#000" stroke-opacity="0.02" fill-opacity="0.14133333333333" fill="#ddd" transform="translate(452.26666666667, 440.63372544552)" /><polyline points="0,48.95930282728,28.266666666667,0,84.8,0,113.06666666667,48.95930282728,84.8,97.918605654561,28.266666666667,97.918605654561,0,48.95930282728" stroke="#000" stroke-opacity="0.02" fill-opacity="0.037333333333333" fill="#ddd" transform="translate(28.266666666667, 489.5930282728)" /><polyline points="0,48.95930282728,28.266666666667,0,84.8,0,113.06666666667,48.95930282728,84.8,97.918605654561,28.266666666667,97.918605654561,0,48.95930282728" stroke="#000" stroke-opacity="0.02" fill-opacity="0.098" fill="#222" transform="translate(113.06666666667, 440.63372544552)" /><polyline points="0,48.95930282728,28.266666666667,0,84.8,0,113.06666666667,48.95930282728,84.8,97.918605654561,28.266666666667,97.918605654561,0,48.95930282728" stroke="#000" stroke-opacity="0.02" fill-opacity="0.02" fill="#ddd" transform="translate(197.86666666667, 489.5930282728)" /><polyline points="0,48.95930282728,28.266666666667,0,84.8,0,113.06666666667,48.95930282728,84.8,97.918605654561,28.266666666667,97.918605654561,0,48.95930282728" stroke="#000" stroke-opacity="0.02" fill-opacity="0.02" fill="#ddd" transform="translate(282.66666666667, 440.63372544552)" /><polyline points="0,48.95930282728,28.266666666667,0,84.8,0,113.06666666667,48.95930282728,84.8,97.918605654561,28.266666666667,97.918605654561,0,48.95930282728" stroke="#000" stroke-opacity="0.02" fill-opacity="0.124" fill="#ddd" transform="translate(367.46666666667, 489.5930282728)" /></svg>