<?xml version="1.0"?><svg xmlns="http://www.w3.org/2000/svg" width="76" height="61"><rect x="0" y="0" width="100%" height="100%" fill="rgb(0, 184, 148)" /><polyline points="6.3333333333333, 0, 12.666666666667, 10.333333333333, 6.3333333333333, 20.666666666667, 0, 10.333333333333" fill="#222" fill-opacity="0.028666666666667" stroke="#000" stroke-opacity="0.02" transform="translate(-6.3333333333333, -10.333333333333)" /><polyline points="6.3333333333333, 0, 12.666666666667, 10.333333333333, 6.3333333333333, 20.666666666667, 0, 10.333333333333" fill="#222" fill-opacity="0.028666666666667" stroke="#000" stroke-opacity="0.02" transform="translate(69.666666666667, -10.333333333333)" /><polyline points="6.3333333333333, 0, 12.666666666667, 10.333333333333, 6.3333333333333, 20.666666666667, 0, 10.333333333333" fill="#222" fill-opacity="0.028666666666667" stroke="#000" stroke-opacity="0.02" transform="translate(-6.3333333333333, 51.666666666667)" /><polyline points="6.3333333333333, 0, 12.666666666667, 10.333333333333, 6.3333333333333, 20.666666666667, 0, 10.333333333333" fill="#222" fill-opacity="0.028666666666667" stroke="#000" stroke-opacity="0.02" transform="translate(69.666666666667, 51.666666666667)" /><polyline points="6.3333333333333, 0, 12.666666666667, 10.333333333333, 6.3333333333333, 20.666666666667, 0, 10.333333333333" fill="#ddd" fill-opacity="0.054666666666667" stroke="#000" stroke-opacity="0.02" transform="translate(6.3333333333333, -10.333333333333)" /><polyline points="6.3333333333333, 0, 12.666666666667, 10.333333333333, 6.3333333333333, 20.666666666667, 0, 10.333333333333" fill="#ddd" fill-opacity="0.054666666666667" stroke="#000" stroke-opacity="0.02" transform="translate(6.3333333333333, 51.666666666667)" /><polyline points="6.3333333333333, 0, 12.666666666667, 10.333333333333, 6.3333333333333, 20.666666666667, 0, 10.333333333333" fill="#ddd" fill-opacity="0.02" stroke="#000" stroke-opacity="0.02" transform="translate(19, -10.333333333333)" /><polyline points="6.3333333333333, 0, 12.666666666667, 10.333333333333, 6.3333333333333, 20.666666666667, 0, 10.333333333333" fill="#ddd" fill-opacity="0.02" stroke="#000" stroke-opacity="0.02" transform="translate(19, 51.666666666667)" /><polyline points="6.3333333333333, 0, 12.666666666667, 10.333333333333, 6.3333333333333, 20.666666666667, 0, 10.333333333333" fill="#222" fill-opacity="0.028666666666667" stroke="#000" stroke-opacity="0.02" transform="translate(31.666666666667, -10.333333333333)" /><polyline points="6.3333333333333, 0, 12.666666666667, 10.333333333333, 6.3333333333333, 20.666666666667, 0, 10.333333333333" fill="#222" fill-opacity="0.028666666666667" stroke="#000" stroke-opacity="0.02" transform="translate(31.666666666667, 51.666666666667)" /><polyline points="6.3333333333333, 0, 12.666666666667, 10.333333333333, 6.3333333333333, 20.666666666667, 0, 10.333333333333" fill="#222" fill-opacity="0.098" stroke="#000" stroke-opacity="0.02" transform="translate(44.333333333333, -10.333333333333)" /><polyline points="6.3333333333333, 0, 12.666666666667, 10.333333333333, 6.3333333333333, 20.666666666667, 0, 10.333333333333" fill="#222" fill-opacity="0.098" stroke="#000" stroke-opacity="0.02" transform="translate(44.333333333333, 51.666666666667)" /><polyline points="6.3333333333333, 0, 12.666666666667, 10.333333333333, 6.3333333333333, 20.666666666667, 0, 10.333333333333" fill="#222" fill-opacity="0.098" stroke="#000" stroke-opacity="0.02" transform="translate(57, -10.333333333333)" /><polyline points="6.3333333333333, 0, 12.666666666667, 10.333333333333, 6.3333333333333, 20.666666666667, 0, 10.333333333333" fill="#222" fill-opacity="0.098" stroke="#000" stroke-opacity="0.02" transform="translate(57, 51.666666666667)" /><polyline points="6.3333333333333, 0, 12.666666666667, 10.333333333333, 6.3333333333333, 20.666666666667, 0, 10.333333333333" fill="#ddd" fill-opacity="0.089333333333333" stroke="#000" stroke-opacity="0.02" transform="translate(0, 0)" /><polyline points="6.3333333333333, 0, 12.666666666667, 10.333333333333, 6.3333333333333, 20.666666666667, 0, 10.333333333333" fill="#ddd" fill-opacity="0.089333333333333" stroke="#000" stroke-opacity="0.02" transform="translate(76, 0)" /><polyline points="6.3333333333333, 0, 12.666666666667, 10.333333333333, 6.3333333333333, 20.666666666667, 0, 10.333333333333" fill="#ddd" fill-opacity="0.089333333333333" stroke="#000" stroke-opacity="0.02" transform="translate(12.666666666667, 0)" /><polyline points="6.3333333333333, 0, 12.666666666667, 10.333333333333, 6.3333333333333, 20.666666666667, 0, 10.333333333333" fill="#ddd" fill-opacity="0.10666666666667" stroke="#000" stroke-opacity="0.02" transform="translate(25.333333333333, 0)" /><polyline points="6.3333333333333, 0, 12.666666666667, 10.333333333333, 6.3333333333333, 20.666666666667, 0, 10.333333333333" fill="#222" fill-opacity="0.098" stroke="#000" stroke-opacity="0.02" transform="translate(38, 0)" /><polyline points="6.3333333333333, 0, 12.666666666667, 10.333333333333, 6.3333333333333, 20.666666666667, 0, 10.333333333333" fill="#ddd" fill-opacity="0.037333333333333" stroke="#000" stroke-opacity="0.02" transform="translate(50.666666666667, 0)" /><polyline points="6.3333333333333, 0, 12.666666666667, 10.333333333333, 6.3333333333333, 20.666666666667, 0, 10.333333333333" fill="#ddd" fill-opacity="0.02" stroke="#000" stroke-opacity="0.02" transform="translate(63.333333333333, 0)" /><polyline points="6.3333333333333, 0, 12.666666666667, 10.333333333333, 6.3333333333333, 20.666666666667, 0, 10.333333333333" fill="#ddd" fill-opacity="0.037333333333333" stroke="#000" stroke-opacity="0.02" transform="translate(-6.3333333333333, 10.333333333333)" /><polyline points="6.3333333333333, 0, 12.666666666667, 10.333333333333, 6.3333333333333, 20.666666666667, 0, 10.333333333333" fill="#ddd" fill-opacity="0.037333333333333" stroke="#000" stroke-opacity="0.02" transform="translate(69.666666666667, 10.333333333333)" /><polyline points="6.3333333333333, 0, 12.666666666667, 10.333333333333, 6.3333333333333, 20.666666666667, 0, 10.333333333333" fill="#222" fill-opacity="0.046" stroke="#000" stroke-opacity="0.02" transform="translate(6.3333333333333, 10.333333333333)" /><polyline points="6.3333333333333, 0, 12.666666666667, 10.333333333333, 6.3333333333333, 20.666666666667, 0, 10.333333333333" fill="#222" fill-opacity="0.11533333333333" stroke="#000" stroke-opacity="0.02" transform="translate(19, 10.333333333333)" /><polyline points="6.3333333333333, 0, 12.666666666667, 10.333333333333, 6.3333333333333, 20.666666666667, 0, 10.333333333333" fill="#ddd" fill-opacity="0.037333333333333" stroke="#000" stroke-opacity="0.02" transform="translate(31.666666666667, 10.333333333333)" /><polyline points="6.3333333333333, 0, 12.666666666667, 10.333333333333, 6.3333333333333, 20.666666666667, 0, 10.333333333333" fill="#222" fill-opacity="0.028666666666667" stroke="#000" stroke-opacity="0.02" transform="translate(44.333333333333, 10.333333333333)" /><polyline points="6.3333333333333, 0, 12.666666666667, 10.333333333333, 6.3333333333333, 20.666666666667, 0, 10.333333333333" fill="#ddd" fill-opacity="0.124" stroke="#000" stroke-opacity="0.02" transform="translate(57, 10.333333333333)" /><polyline points="6.3333333333333, 0, 12.666666666667, 10.333333333333, 6.3333333333333, 20.666666666667, 0, 10.333333333333" fill="#ddd" fill-opacity="0.089333333333333" stroke="#000" stroke-opacity="0.02" transform="translate(0, 20.666666666667)" /><polyline points="6.3333333333333, 0, 12.666666666667, 10.333333333333, 6.3333333333333, 20.666666666667, 0, 10.333333333333" fill="#ddd" fill-opacity="0.089333333333333" stroke="#000" stroke-opacity="0.02" transform="translate(76, 20.666666666667)" /><polyline points="6.3333333333333, 0, 12.666666666667, 10.333333333333, 6.3333333333333, 20.666666666667, 0, 10.333333333333" fill="#222" fill-opacity="0.15" stroke="#000" stroke-opacity="0.02" transform="translate(12.666666666667, 20.666666666667)" /><polyline points="6.3333333333333, 0, 12.666666666667, 10.333333333333, 6.3333333333333, 20.666666666667, 0, 10.333333333333" fill="#222" fill-opacity="0.11533333333333" stroke="#000" stroke-opacity="0.02" transform="translate(25.333333333333, 20.666666666667)" /><polyline points="6.3333333333333, 0, 12.666666666667, 10.333333333333, 6.3333333333333, 20.666666666667, 0, 10.333333333333" fill="#ddd" fill-opacity="0.10666666666667" stroke="#000" stroke-opacity="0.02" transform="translate(38, 20.666666666667)" /><polyline points="6.3333333333333, 0, 12.666666666667, 10.333333333333, 6.3333333333333, 20.666666666667, 0, 10.333333333333" fill="#222" fill-opacity="0.15" stroke="#000" stroke-opacity="0.02" transform="translate(50.666666666667, 20.666666666667)" /><polyline points="6.3333333333333, 0, 12.666666666667, 10.333333333333, 6.3333333333333, 20.666666666667, 0, 10.333333333333" fill="#222" fill-opacity="0.11533333333333" stroke="#000" stroke-opacity="0.02" transform="translate(63.333333333333, 20.666666666667)" /><polyline points="6.3333333333333, 0, 12.666666666667, 10.333333333333, 6.3333333333333, 20.666666666667, 0, 10.333333333333" fill="#ddd" fill-opacity="0.037333333333333" stroke="#000" stroke-opacity="0.02" transform="translate(-6.3333333333333, 31)" /><polyline points="6.3333333333333, 0, 12.666666666667, 10.333333333333, 6.3333333333333, 20.666666666667, 0, 10.333333333333" fill="#ddd" fill-opacity="0.037333333333333" stroke="#000" stroke-opacity="0.02" transform="translate(69.666666666667, 31)" /><polyline points="6.3333333333333, 0, 12.666666666667, 10.333333333333, 6.3333333333333, 20.666666666667, 0, 10.333333333333" fill="#222" fill-opacity="0.11533333333333" stroke="#000" stroke-opacity="0.02" transform="translate(6.3333333333333, 31)" /><polyline points="6.3333333333333, 0, 12.666666666667, 10.333333333333, 6.3333333333333, 20.666666666667, 0, 10.333333333333" fill="#ddd" fill-opacity="0.072" stroke="#000" stroke-opacity="0.02" transform="translate(19, 31)" /><polyline points="6.3333333333333, 0, 12.666666666667, 10.333333333333, 6.3333333333333, 20.666666666667, 0, 10.333333333333" fill="#222" fill-opacity="0.028666666666667" stroke="#000" stroke-opacity="0.02" transform="translate(31.666666666667, 31)" /><polyline points="6.3333333333333, 0, 12.666666666667, 10.333333333333, 6.3333333333333, 20.666666666667, 0, 10.333333333333" fill="#222" fill-opacity="0.063333333333333" stroke="#000" stroke-opacity="0.02" transform="translate(44.333333333333, 31)" /><polyline points="6.3333333333333, 0, 12.666666666667, 10.333333333333, 6.3333333333333, 20.666666666667, 0, 10.333333333333" fill="#ddd" fill-opacity="0.124" stroke="#000" stroke-opacity="0.02" transform="translate(57, 31)" /><polyline points="6.3333333333333, 0, 12.666666666667, 10.333333333333, 6.3333333333333, 20.666666666667, 0, 10.333333333333" fill="#ddd" fill-opacity="0.072" stroke="#000" stroke-opacity="0.02" transform="translate(0, 41.333333333333)" /><polyline points="6.3333333333333, 0, 12.666666666667, 10.333333333333, 6.3333333333333, 20.666666666667, 0, 10.333333333333" fill="#ddd" fill-opacity="0.072" stroke="#000" stroke-opacity="0.02" transform="translate(76, 41.333333333333)" /><polyline points="6.3333333333333, 0, 12.666666666667, 10.333333333333, 6.3333333333333, 20.666666666667, 0, 10.333333333333" fill="#ddd" fill-opacity="0.124" stroke="#000" stroke-opacity="0.02" transform="translate(12.666666666667, 41.333333333333)" /><polyline points="6.3333333333333, 0, 12.666666666667, 10.333333333333, 6.3333333333333, 20.666666666667, 0, 10.333333333333" fill="#ddd" fill-opacity="0.14133333333333" stroke="#000" stroke-opacity="0.02" transform="translate(25.333333333333, 41.333333333333)" /><polyline points="6.3333333333333, 0, 12.666666666667, 10.333333333333, 6.3333333333333, 20.666666666667, 0, 10.333333333333" fill="#222" fill-opacity="0.063333333333333" stroke="#000" stroke-opacity="0.02" transform="translate(38, 41.333333333333)" /><polyline points="6.3333333333333, 0, 12.666666666667, 10.333333333333, 6.3333333333333, 20.666666666667, 0, 10.333333333333" fill="#222" fill-opacity="0.080666666666667" stroke="#000" stroke-opacity="0.02" transform="translate(50.666666666667, 41.333333333333)" /><polyline points="6.3333333333333, 0, 12.666666666667, 10.333333333333, 6.3333333333333, 20.666666666667, 0, 10.333333333333" fill="#222" fill-opacity="0.063333333333333" stroke="#000" stroke-opacity="0.02" transform="translate(63.333333333333, 41.333333333333)" /></svg>