<?xml version="1.0"?><svg xmlns="http://www.w3.org/2000/svg" width="145" height="145"><rect x="0" y="0" width="100%" height="100%" fill="rgb(129, 236, 236)" /><circle cx="0" cy="0" r="24.166666666667" fill="#ddd" style="opacity:0.037333333333333;" /><circle cx="145" cy="0" r="24.166666666667" fill="#ddd" style="opacity:0.037333333333333;" /><circle cx="0" cy="145" r="24.166666666667" fill="#ddd" style="opacity:0.037333333333333;" /><circle cx="145" cy="145" r="24.166666666667" fill="#ddd" style="opacity:0.037333333333333;" /><circle cx="24.166666666667" cy="0" r="24.166666666667" fill="#222" style="opacity:0.098;" /><circle cx="24.166666666667" cy="145" r="24.166666666667" fill="#222" style="opacity:0.098;" /><circle cx="48.333333333333" cy="0" r="24.166666666667" fill="#222" style="opacity:0.046;" /><circle cx="48.333333333333" cy="145" r="24.166666666667" fill="#222" style="opacity:0.046;" /><circle cx="72.5" cy="0" r="24.166666666667" fill="#222" style="opacity:0.063333333333333;" /><circle cx="72.5" cy="145" r="24.166666666667" fill="#222" style="opacity:0.063333333333333;" /><circle cx="96.666666666667" cy="0" r="24.166666666667" fill="#ddd" style="opacity:0.02;" /><circle cx="96.666666666667" cy="145" r="24.166666666667" fill="#ddd" style="opacity:0.02;" /><circle cx="120.83333333333" cy="0" r="24.166666666667" fill="#ddd" style="opacity:0.089333333333333;" /><circle cx="120.83333333333" cy="145" r="24.166666666667" fill="#ddd" style="opacity:0.089333333333333;" /><circle cx="0" cy="24.166666666667" r="24.166666666667" fill="#ddd" style="opacity:0.02;" /><circle cx="145" cy="24.166666666667" r="24.166666666667" fill="#ddd" style="opacity:0.02;" /><circle cx="24.166666666667" cy="24.166666666667" r="24.166666666667" fill="#ddd" style="opacity:0.054666666666667;" /><circle cx="48.333333333333" cy="24.166666666667" r="24.166666666667" fill="#ddd" style="opacity:0.10666666666667;" /><circle cx="72.5" cy="24.166666666667" r="24.166666666667" fill="#222" style="opacity:0.028666666666667;" /><circle cx="96.666666666667" cy="24.166666666667" r="24.166666666667" fill="#222" style="opacity:0.063333333333333;" /><circle cx="120.83333333333" cy="24.166666666667" r="24.166666666667" fill="#ddd" style="opacity:0.037333333333333;" /><circle cx="0" cy="48.333333333333" r="24.166666666667" fill="#222" style="opacity:0.15;" /><circle cx="145" cy="48.333333333333" r="24.166666666667" fill="#222" style="opacity:0.15;" /><circle cx="24.166666666667" cy="48.333333333333" r="24.166666666667" fill="#222" style="opacity:0.046;" /><circle cx="48.333333333333" cy="48.333333333333" r="24.166666666667" fill="#222" style="opacity:0.063333333333333;" /><circle cx="72.5" cy="48.333333333333" r="24.166666666667" fill="#222" style="opacity:0.15;" /><circle cx="96.666666666667" cy="48.333333333333" r="24.166666666667" fill="#222" style="opacity:0.11533333333333;" /><circle cx="120.83333333333" cy="48.333333333333" r="24.166666666667" fill="#ddd" style="opacity:0.14133333333333;" /><circle cx="0" cy="72.5" r="24.166666666667" fill="#222" style="opacity:0.15;" /><circle cx="145" cy="72.5" r="24.166666666667" fill="#222" style="opacity:0.15;" /><circle cx="24.166666666667" cy="72.5" r="24.166666666667" fill="#ddd" style="opacity:0.054666666666667;" /><circle cx="48.333333333333" cy="72.5" r="24.166666666667" fill="#222" style="opacity:0.028666666666667;" /><circle cx="72.5" cy="72.5" r="24.166666666667" fill="#222" style="opacity:0.028666666666667;" /><circle cx="96.666666666667" cy="72.5" r="24.166666666667" fill="#222" style="opacity:0.080666666666667;" /><circle cx="120.83333333333" cy="72.5" r="24.166666666667" fill="#ddd" style="opacity:0.10666666666667;" /><circle cx="0" cy="96.666666666667" r="24.166666666667" fill="#ddd" style="opacity:0.072;" /><circle cx="145" cy="96.666666666667" r="24.166666666667" fill="#ddd" style="opacity:0.072;" /><circle cx="24.166666666667" cy="96.666666666667" r="24.166666666667" fill="#ddd" style="opacity:0.10666666666667;" /><circle cx="48.333333333333" cy="96.666666666667" r="24.166666666667" fill="#ddd" style="opacity:0.054666666666667;" /><circle cx="72.5" cy="96.666666666667" r="24.166666666667" fill="#222" style="opacity:0.046;" /><circle cx="96.666666666667" cy="96.666666666667" r="24.166666666667" fill="#ddd" style="opacity:0.054666666666667;" /><circle cx="120.83333333333" cy="96.666666666667" r="24.166666666667" fill="#222" style="opacity:0.13266666666667;" /><circle cx="0" cy="120.83333333333" r="24.166666666667" fill="#ddd" style="opacity:0.14133333333333;" /><circle cx="145" cy="120.83333333333" r="24.166666666667" fill="#ddd" style="opacity:0.14133333333333;" /><circle cx="24.166666666667" cy="120.83333333333" r="24.166666666667" fill="#ddd" style="opacity:0.14133333333333;" /><circle cx="48.333333333333" cy="120.83333333333" r="24.166666666667" fill="#ddd" style="opacity:0.14133333333333;" /><circle cx="72.5" cy="120.83333333333" r="24.166666666667" fill="#222" style="opacity:0.080666666666667;" /><circle cx="96.666666666667" cy="120.83333333333" r="24.166666666667" fill="#ddd" style="opacity:0.072;" /><circle cx="120.83333333333" cy="120.83333333333" r="24.166666666667" fill="#ddd" style="opacity:0.02;" /></svg>