<?xml version="1.0"?><svg xmlns="http://www.w3.org/2000/svg" width="527" height="527"><rect x="0" y="0" width="100%" height="100%" fill="rgb(253, 121, 168)" /><rect x="0" y="16" width="100%" height="8" opacity="0.046" fill="#222" /><rect x="0" y="36" width="100%" height="20" opacity="0.15" fill="#222" /><rect x="0" y="67" width="100%" height="18" opacity="0.13266666666667" fill="#222" /><rect x="0" y="103" width="100%" height="17" opacity="0.124" fill="#ddd" /><rect x="0" y="139" width="100%" height="20" opacity="0.15" fill="#222" /><rect x="0" y="174" width="100%" height="18" opacity="0.13266666666667" fill="#222" /><rect x="0" y="204" width="100%" height="19" opacity="0.14133333333333" fill="#ddd" /><rect x="0" y="236" width="100%" height="11" opacity="0.072" fill="#ddd" /><rect x="0" y="257" width="100%" height="12" opacity="0.080666666666667" fill="#222" /><rect x="0" y="282" width="100%" height="8" opacity="0.046" fill="#222" /><rect x="0" y="302" width="100%" height="18" opacity="0.13266666666667" fill="#222" /><rect x="0" y="328" width="100%" height="6" opacity="0.028666666666667" fill="#222" /><rect x="0" y="346" width="100%" height="12" opacity="0.080666666666667" fill="#222" /><rect x="0" y="378" width="100%" height="14" opacity="0.098" fill="#222" /><rect x="0" y="411" width="100%" height="20" opacity="0.15" fill="#222" /><rect x="0" y="438" width="100%" height="9" opacity="0.054666666666667" fill="#ddd" /><rect x="0" y="458" width="100%" height="7" opacity="0.037333333333333" fill="#ddd" /><rect x="0" y="485" width="100%" height="14" opacity="0.098" fill="#222" /><rect x="0" y="512" width="100%" height="15" opacity="0.10666666666667" fill="#ddd" /><rect x="16" y="0" width="8" height="100%" opacity="0.046" fill="#222" /><rect x="36" y="0" width="20" height="100%" opacity="0.15" fill="#222" /><rect x="67" y="0" width="18" height="100%" opacity="0.13266666666667" fill="#222" /><rect x="103" y="0" width="17" height="100%" opacity="0.124" fill="#ddd" /><rect x="139" y="0" width="20" height="100%" opacity="0.15" fill="#222" /><rect x="174" y="0" width="18" height="100%" opacity="0.13266666666667" fill="#222" /><rect x="204" y="0" width="19" height="100%" opacity="0.14133333333333" fill="#ddd" /><rect x="236" y="0" width="11" height="100%" opacity="0.072" fill="#ddd" /><rect x="257" y="0" width="12" height="100%" opacity="0.080666666666667" fill="#222" /><rect x="282" y="0" width="8" height="100%" opacity="0.046" fill="#222" /><rect x="302" y="0" width="18" height="100%" opacity="0.13266666666667" fill="#222" /><rect x="328" y="0" width="6" height="100%" opacity="0.028666666666667" fill="#222" /><rect x="346" y="0" width="12" height="100%" opacity="0.080666666666667" fill="#222" /><rect x="378" y="0" width="14" height="100%" opacity="0.098" fill="#222" /><rect x="411" y="0" width="20" height="100%" opacity="0.15" fill="#222" /><rect x="438" y="0" width="9" height="100%" opacity="0.054666666666667" fill="#ddd" /><rect x="458" y="0" width="7" height="100%" opacity="0.037333333333333" fill="#ddd" /><rect x="485" y="0" width="14" height="100%" opacity="0.098" fill="#222" /><rect x="512" y="0" width="15" height="100%" opacity="0.10666666666667" fill="#ddd" /></svg>