<?xml version="1.0"?><svg xmlns="http://www.w3.org/2000/svg" width="167" height="193"><rect x="0" y="0" width="100%" height="100%" fill="rgb(253, 203, 110)" /><rect x="-17.666666666667" y="-17.666666666667" width="35.333333333333" height="35.333333333333" stroke="#000" stroke-opacity="0.02" fill="#222" fill-opacity="0.13266666666667" stroke-width="1" /><rect x="149.53246186743" y="-17.666666666667" width="35.333333333333" height="35.333333333333" stroke="#000" stroke-opacity="0.02" fill="#222" fill-opacity="0.13266666666667" stroke-width="1" /><rect x="-17.666666666667" y="175.3982570682" width="35.333333333333" height="35.333333333333" stroke="#000" stroke-opacity="0.02" fill="#222" fill-opacity="0.13266666666667" stroke-width="1" /><rect x="149.53246186743" y="175.3982570682" width="35.333333333333" height="35.333333333333" stroke="#000" stroke-opacity="0.02" fill="#222" fill-opacity="0.13266666666667" stroke-width="1" /><rect x="65.932897600383" y="30.59956426705" width="35.333333333333" height="35.333333333333" stroke="#000" stroke-opacity="0.02" fill="#222" fill-opacity="0.046" stroke-width="1" /><rect x="-17.666666666667" y="78.865795200767" width="35.333333333333" height="35.333333333333" stroke="#000" stroke-opacity="0.02" fill="#ddd" fill-opacity="0.037333333333333" stroke-width="1" /><rect x="149.53246186743" y="78.865795200767" width="35.333333333333" height="35.333333333333" stroke="#000" stroke-opacity="0.02" fill="#ddd" fill-opacity="0.037333333333333" stroke-width="1" /><rect x="65.932897600383" y="127.13202613448" width="35.333333333333" height="35.333333333333" stroke="#000" stroke-opacity="0.02" fill="#222" fill-opacity="0.028666666666667" stroke-width="1" /><polyline points="0, 0, 30.59956426705, 17.666666666667, 0, 35.333333333333, 0, 0" stroke="#000" stroke-opacity="0.02" fill="#222" fill-opacity="0.13266666666667" stroke-width="1" transform="translate(17.666666666667, -17.666666666667) rotate(0, 17.666666666667, 15.299782133525)" /><polyline points="0, 0, 30.59956426705, 17.666666666667, 0, 35.333333333333, 0, 0" stroke="#000" stroke-opacity="0.02" fill="#222" fill-opacity="0.13266666666667" stroke-width="1" transform="translate(17.666666666667, 210.73159040153) rotate(0, 17.666666666667, 15.299782133525) scale(1, -1)" /><polyline points="0, 0, 30.59956426705, 17.666666666667, 0, 35.333333333333, 0, 0" stroke="#000" stroke-opacity="0.02" fill="#ddd" fill-opacity="0.072" stroke-width="1" transform="translate(149.53246186743, -17.666666666667) rotate(0, 17.666666666667, 15.299782133525) scale(-1, 1)" /><polyline points="0, 0, 30.59956426705, 17.666666666667, 0, 35.333333333333, 0, 0" stroke="#000" stroke-opacity="0.02" fill="#ddd" fill-opacity="0.072" stroke-width="1" transform="translate(149.53246186743, 210.73159040153) rotate(0, 17.666666666667, 15.299782133525) scale(-1, -1)" /><polyline points="0, 0, 30.59956426705, 17.666666666667, 0, 35.333333333333, 0, 0" stroke="#000" stroke-opacity="0.02" fill="#222" fill-opacity="0.15" stroke-width="1" transform="translate(101.26623093372, 30.59956426705)" /><polyline points="0, 0, 30.59956426705, 17.666666666667, 0, 35.333333333333, 0, 0" stroke="#000" stroke-opacity="0.02" fill="#222" fill-opacity="0.080666666666667" stroke-width="1" transform="translate(65.932897600383, 30.59956426705) scale(-1, 1)" /><polyline points="0, 0, 30.59956426705, 17.666666666667, 0, 35.333333333333, 0, 0" stroke="#000" stroke-opacity="0.02" fill="#ddd" fill-opacity="0.124" stroke-width="1" transform="translate(101.26623093372, 162.46535946782) scale(1, -1)" /><polyline points="0, 0, 30.59956426705, 17.666666666667, 0, 35.333333333333, 0, 0" stroke="#000" stroke-opacity="0.02" fill="#ddd" fill-opacity="0.124" stroke-width="1" transform="translate(65.932897600383, 162.46535946782) scale(-1, -1)" /><polyline points="0, 0, 30.59956426705, 17.666666666667, 0, 35.333333333333, 0, 0" stroke="#000" stroke-opacity="0.02" fill="#222" fill-opacity="0.15" stroke-width="1" transform="translate(17.666666666667, 78.865795200767)" /><polyline points="0, 0, 30.59956426705, 17.666666666667, 0, 35.333333333333, 0, 0" stroke="#000" stroke-opacity="0.02" fill="#222" fill-opacity="0.098" stroke-width="1" transform="translate(149.53246186743, 78.865795200767) scale(-1, 1)" /><rect x="0" y="0" width="35.333333333333" height="35.333333333333" stroke="#000" stroke-opacity="0.02" fill="#ddd" fill-opacity="0.089333333333333" stroke-width="1" transform="translate(17.666666666667, 17.666666666667) rotate(-30, 0, 0)" /><rect x="0" y="0" width="35.333333333333" height="35.333333333333" stroke="#000" stroke-opacity="0.02" fill="#222" fill-opacity="0.11533333333333" stroke-width="1" transform="scale(-1, 1) translate(-149.53246186743, 17.666666666667) rotate(-30, 0, 0)" /><rect x="0" y="0" width="35.333333333333" height="35.333333333333" stroke="#000" stroke-opacity="0.02" fill="#222" fill-opacity="0.063333333333333" stroke-width="1" transform="translate(17.666666666667, 43.532461867434) rotate(30, 0, 35.333333333333)" /><rect x="0" y="0" width="35.333333333333" height="35.333333333333" stroke="#000" stroke-opacity="0.02" fill="#222" fill-opacity="0.028666666666667" stroke-width="1" transform="scale(-1, 1) translate(-149.53246186743, 43.532461867434) rotate(30, 0, 35.333333333333)" /><rect x="0" y="0" width="35.333333333333" height="35.333333333333" stroke="#000" stroke-opacity="0.02" fill="#222" fill-opacity="0.063333333333333" stroke-width="1" transform="scale(1, -1) translate(17.666666666667, -149.53246186743) rotate(30, 0, 35.333333333333)" /><rect x="0" y="0" width="35.333333333333" height="35.333333333333" stroke="#000" stroke-opacity="0.02" fill="#ddd" fill-opacity="0.054666666666667" stroke-width="1" transform="scale(-1, -1) translate(-149.53246186743, -149.53246186743) rotate(30, 0, 35.333333333333)" /><rect x="0" y="0" width="35.333333333333" height="35.333333333333" stroke="#000" stroke-opacity="0.02" fill="#ddd" fill-opacity="0.02" stroke-width="1" transform="scale(1, -1) translate(17.666666666667, -175.3982570682) rotate(-30, 0, 0)" /><rect x="0" y="0" width="35.333333333333" height="35.333333333333" stroke="#000" stroke-opacity="0.02" fill="#ddd" fill-opacity="0.14133333333333" stroke-width="1" transform="scale(-1, -1) translate(-149.53246186743, -175.3982570682) rotate(-30, 0, 0)" /></svg>