<?xml version="1.0"?><svg xmlns="http://www.w3.org/2000/svg" width="239" height="239"><rect x="0" y="0" width="100%" height="100%" fill="rgb(108, 92, 231)" /><circle cx="20" cy="20" r="16.666666666667" fill="none" stroke="#222" style="opacity:0.080666666666667;stroke-width:6.6666666666667px;" /><circle cx="20" cy="20" r="8.3333333333333" fill="#222" fill-opacity="0.15" /><circle cx="60" cy="20" r="16.666666666667" fill="none" stroke="#222" style="opacity:0.080666666666667;stroke-width:6.6666666666667px;" /><circle cx="60" cy="20" r="8.3333333333333" fill="#222" fill-opacity="0.11533333333333" /><circle cx="100" cy="20" r="16.666666666667" fill="none" stroke="#222" style="opacity:0.028666666666667;stroke-width:6.6666666666667px;" /><circle cx="100" cy="20" r="8.3333333333333" fill="#222" fill-opacity="0.13266666666667" /><circle cx="140" cy="20" r="16.666666666667" fill="none" stroke="#222" style="opacity:0.098;stroke-width:6.6666666666667px;" /><circle cx="140" cy="20" r="8.3333333333333" fill="#ddd" fill-opacity="0.10666666666667" /><circle cx="180" cy="20" r="16.666666666667" fill="none" stroke="#ddd" style="opacity:0.10666666666667;stroke-width:6.6666666666667px;" /><circle cx="180" cy="20" r="8.3333333333333" fill="#222" fill-opacity="0.098" /><circle cx="220" cy="20" r="16.666666666667" fill="none" stroke="#222" style="opacity:0.028666666666667;stroke-width:6.6666666666667px;" /><circle cx="220" cy="20" r="8.3333333333333" fill="#ddd" fill-opacity="0.02" /><circle cx="20" cy="60" r="16.666666666667" fill="none" stroke="#ddd" style="opacity:0.124;stroke-width:6.6666666666667px;" /><circle cx="20" cy="60" r="8.3333333333333" fill="#ddd" fill-opacity="0.037333333333333" /><circle cx="60" cy="60" r="16.666666666667" fill="none" stroke="#222" style="opacity:0.080666666666667;stroke-width:6.6666666666667px;" /><circle cx="60" cy="60" r="8.3333333333333" fill="#ddd" fill-opacity="0.089333333333333" /><circle cx="100" cy="60" r="16.666666666667" fill="none" stroke="#ddd" style="opacity:0.089333333333333;stroke-width:6.6666666666667px;" /><circle cx="100" cy="60" r="8.3333333333333" fill="#222" fill-opacity="0.063333333333333" /><circle cx="140" cy="60" r="16.666666666667" fill="none" stroke="#ddd" style="opacity:0.037333333333333;stroke-width:6.6666666666667px;" /><circle cx="140" cy="60" r="8.3333333333333" fill="#ddd" fill-opacity="0.072" /><circle cx="180" cy="60" r="16.666666666667" fill="none" stroke="#ddd" style="opacity:0.10666666666667;stroke-width:6.6666666666667px;" /><circle cx="180" cy="60" r="8.3333333333333" fill="#ddd" fill-opacity="0.089333333333333" /><circle cx="220" cy="60" r="16.666666666667" fill="none" stroke="#222" style="opacity:0.028666666666667;stroke-width:6.6666666666667px;" /><circle cx="220" cy="60" r="8.3333333333333" fill="#222" fill-opacity="0.15" /><circle cx="20" cy="100" r="16.666666666667" fill="none" stroke="#222" style="opacity:0.11533333333333;stroke-width:6.6666666666667px;" /><circle cx="20" cy="100" r="8.3333333333333" fill="#ddd" fill-opacity="0.037333333333333" /><circle cx="60" cy="100" r="16.666666666667" fill="none" stroke="#ddd" style="opacity:0.10666666666667;stroke-width:6.6666666666667px;" /><circle cx="60" cy="100" r="8.3333333333333" fill="#ddd" fill-opacity="0.10666666666667" /><circle cx="100" cy="100" r="16.666666666667" fill="none" stroke="#222" style="opacity:0.098;stroke-width:6.6666666666667px;" /><circle cx="100" cy="100" r="8.3333333333333" fill="#ddd" fill-opacity="0.02" /><circle cx="140" cy="100" r="16.666666666667" fill="none" stroke="#222" style="opacity:0.028666666666667;stroke-width:6.6666666666667px;" /><circle cx="140" cy="100" r="8.3333333333333" fill="#ddd" fill-opacity="0.10666666666667" /><circle cx="180" cy="100" r="16.666666666667" fill="none" stroke="#ddd" style="opacity:0.124;stroke-width:6.6666666666667px;" /><circle cx="180" cy="100" r="8.3333333333333" fill="#ddd" fill-opacity="0.037333333333333" /><circle cx="220" cy="100" r="16.666666666667" fill="none" stroke="#ddd" style="opacity:0.02;stroke-width:6.6666666666667px;" /><circle cx="220" cy="100" r="8.3333333333333" fill="#ddd" fill-opacity="0.089333333333333" /><circle cx="20" cy="140" r="16.666666666667" fill="none" stroke="#222" style="opacity:0.046;stroke-width:6.6666666666667px;" /><circle cx="20" cy="140" r="8.3333333333333" fill="#ddd" fill-opacity="0.072" /><circle cx="60" cy="140" r="16.666666666667" fill="none" stroke="#222" style="opacity:0.028666666666667;stroke-width:6.6666666666667px;" /><circle cx="60" cy="140" r="8.3333333333333" fill="#ddd" fill-opacity="0.10666666666667" /><circle cx="100" cy="140" r="16.666666666667" fill="none" stroke="#ddd" style="opacity:0.10666666666667;stroke-width:6.6666666666667px;" /><circle cx="100" cy="140" r="8.3333333333333" fill="#222" fill-opacity="0.028666666666667" /><circle cx="140" cy="140" r="16.666666666667" fill="none" stroke="#ddd" style="opacity:0.072;stroke-width:6.6666666666667px;" /><circle cx="140" cy="140" r="8.3333333333333" fill="#222" fill-opacity="0.046" /><circle cx="180" cy="140" r="16.666666666667" fill="none" stroke="#ddd" style="opacity:0.089333333333333;stroke-width:6.6666666666667px;" /><circle cx="180" cy="140" r="8.3333333333333" fill="#ddd" fill-opacity="0.02" /><circle cx="220" cy="140" r="16.666666666667" fill="none" stroke="#ddd" style="opacity:0.037333333333333;stroke-width:6.6666666666667px;" /><circle cx="220" cy="140" r="8.3333333333333" fill="#ddd" fill-opacity="0.124" /><circle cx="20" cy="180" r="16.666666666667" fill="none" stroke="#ddd" style="opacity:0.10666666666667;stroke-width:6.6666666666667px;" /><circle cx="20" cy="180" r="8.3333333333333" fill="#222" fill-opacity="0.028666666666667" /><circle cx="60" cy="180" r="16.666666666667" fill="none" stroke="#ddd" style="opacity:0.02;stroke-width:6.6666666666667px;" /><circle cx="60" cy="180" r="8.3333333333333" fill="#222" fill-opacity="0.098" /><circle cx="100" cy="180" r="16.666666666667" fill="none" stroke="#ddd" style="opacity:0.10666666666667;stroke-width:6.6666666666667px;" /><circle cx="100" cy="180" r="8.3333333333333" fill="#ddd" fill-opacity="0.10666666666667" /><circle cx="140" cy="180" r="16.666666666667" fill="none" stroke="#ddd" style="opacity:0.037333333333333;stroke-width:6.6666666666667px;" /><circle cx="140" cy="180" r="8.3333333333333" fill="#222" fill-opacity="0.11533333333333" /><circle cx="180" cy="180" r="16.666666666667" fill="none" stroke="#222" style="opacity:0.15;stroke-width:6.6666666666667px;" /><circle cx="180" cy="180" r="8.3333333333333" fill="#222" fill-opacity="0.028666666666667" /><circle cx="220" cy="180" r="16.666666666667" fill="none" stroke="#ddd" style="opacity:0.089333333333333;stroke-width:6.6666666666667px;" /><circle cx="220" cy="180" r="8.3333333333333" fill="#ddd" fill-opacity="0.10666666666667" /><circle cx="20" cy="220" r="16.666666666667" fill="none" stroke="#ddd" style="opacity:0.072;stroke-width:6.6666666666667px;" /><circle cx="20" cy="220" r="8.3333333333333" fill="#ddd" fill-opacity="0.037333333333333" /><circle cx="60" cy="220" r="16.666666666667" fill="none" stroke="#222" style="opacity:0.063333333333333;stroke-width:6.6666666666667px;" /><circle cx="60" cy="220" r="8.3333333333333" fill="#ddd" fill-opacity="0.089333333333333" /><circle cx="100" cy="220" r="16.666666666667" fill="none" stroke="#ddd" style="opacity:0.089333333333333;stroke-width:6.6666666666667px;" /><circle cx="100" cy="220" r="8.3333333333333" fill="#222" fill-opacity="0.080666666666667" /><circle cx="140" cy="220" r="16.666666666667" fill="none" stroke="#ddd" style="opacity:0.037333333333333;stroke-width:6.6666666666667px;" /><circle cx="140" cy="220" r="8.3333333333333" fill="#ddd" fill-opacity="0.124" /><circle cx="180" cy="220" r="16.666666666667" fill="none" stroke="#ddd" style="opacity:0.02;stroke-width:6.6666666666667px;" /><circle cx="180" cy="220" r="8.3333333333333" fill="#222" fill-opacity="0.028666666666667" /><circle cx="220" cy="220" r="16.666666666667" fill="none" stroke="#222" style="opacity:0.098;stroke-width:6.6666666666667px;" /><circle cx="220" cy="220" r="8.3333333333333" fill="#ddd" fill-opacity="0.10666666666667" /></svg>