<?xml version="1.0"?><svg xmlns="http://www.w3.org/2000/svg" width="240" height="684"><rect x="0" y="0" width="100%" height="100%" fill="rgb(162, 155, 254)" /><path d="M0 86 C 42 0, 78 0, 120 86 S 198 172, 240 86 S 318 0, 360, 86" fill="none" stroke="#222" style="opacity:0.080666666666667;stroke-width:19px;" transform="translate(-60, -129)" /><path d="M0 86 C 42 0, 78 0, 120 86 S 198 172, 240 86 S 318 0, 360, 86" fill="none" stroke="#222" style="opacity:0.080666666666667;stroke-width:19px;" transform="translate(-60, 555)" /><path d="M0 86 C 42 0, 78 0, 120 86 S 198 172, 240 86 S 318 0, 360, 86" fill="none" stroke="#ddd" style="opacity:0.124;stroke-width:19px;" transform="translate(-60, -110)" /><path d="M0 86 C 42 0, 78 0, 120 86 S 198 172, 240 86 S 318 0, 360, 86" fill="none" stroke="#ddd" style="opacity:0.124;stroke-width:19px;" transform="translate(-60, 574)" /><path d="M0 86 C 42 0, 78 0, 120 86 S 198 172, 240 86 S 318 0, 360, 86" fill="none" stroke="#222" style="opacity:0.098;stroke-width:19px;" transform="translate(-60, -91)" /><path d="M0 86 C 42 0, 78 0, 120 86 S 198 172, 240 86 S 318 0, 360, 86" fill="none" stroke="#222" style="opacity:0.098;stroke-width:19px;" transform="translate(-60, 593)" /><path d="M0 86 C 42 0, 78 0, 120 86 S 198 172, 240 86 S 318 0, 360, 86" fill="none" stroke="#222" style="opacity:0.15;stroke-width:19px;" transform="translate(-60, -72)" /><path d="M0 86 C 42 0, 78 0, 120 86 S 198 172, 240 86 S 318 0, 360, 86" fill="none" stroke="#222" style="opacity:0.15;stroke-width:19px;" transform="translate(-60, 612)" /><path d="M0 86 C 42 0, 78 0, 120 86 S 198 172, 240 86 S 318 0, 360, 86" fill="none" stroke="#ddd" style="opacity:0.14133333333333;stroke-width:19px;" transform="translate(-60, -53)" /><path d="M0 86 C 42 0, 78 0, 120 86 S 198 172, 240 86 S 318 0, 360, 86" fill="none" stroke="#ddd" style="opacity:0.14133333333333;stroke-width:19px;" transform="translate(-60, 631)" /><path d="M0 86 C 42 0, 78 0, 120 86 S 198 172, 240 86 S 318 0, 360, 86" fill="none" stroke="#ddd" style="opacity:0.072;stroke-width:19px;" transform="translate(-60, -34)" /><path d="M0 86 C 42 0, 78 0, 120 86 S 198 172, 240 86 S 318 0, 360, 86" fill="none" stroke="#ddd" style="opacity:0.072;stroke-width:19px;" transform="translate(-60, 650)" /><path d="M0 86 C 42 0, 78 0, 120 86 S 198 172, 240 86 S 318 0, 360, 86" fill="none" stroke="#ddd" style="opacity:0.089333333333333;stroke-width:19px;" transform="translate(-60, -15)" /><path d="M0 86 C 42 0, 78 0, 120 86 S 198 172, 240 86 S 318 0, 360, 86" fill="none" stroke="#ddd" style="opacity:0.089333333333333;stroke-width:19px;" transform="translate(-60, 669)" /><path d="M0 86 C 42 0, 78 0, 120 86 S 198 172, 240 86 S 318 0, 360, 86" fill="none" stroke="#222" style="opacity:0.046;stroke-width:19px;" transform="translate(-60, 4)" /><path d="M0 86 C 42 0, 78 0, 120 86 S 198 172, 240 86 S 318 0, 360, 86" fill="none" stroke="#222" style="opacity:0.046;stroke-width:19px;" transform="translate(-60, 688)" /><path d="M0 86 C 42 0, 78 0, 120 86 S 198 172, 240 86 S 318 0, 360, 86" fill="none" stroke="#222" style="opacity:0.028666666666667;stroke-width:19px;" transform="translate(-60, 23)" /><path d="M0 86 C 42 0, 78 0, 120 86 S 198 172, 240 86 S 318 0, 360, 86" fill="none" stroke="#222" style="opacity:0.028666666666667;stroke-width:19px;" transform="translate(-60, 707)" /><path d="M0 86 C 42 0, 78 0, 120 86 S 198 172, 240 86 S 318 0, 360, 86" fill="none" stroke="#222" style="opacity:0.15;stroke-width:19px;" transform="translate(-60, 42)" /><path d="M0 86 C 42 0, 78 0, 120 86 S 198 172, 240 86 S 318 0, 360, 86" fill="none" stroke="#222" style="opacity:0.15;stroke-width:19px;" transform="translate(-60, 726)" /><path d="M0 86 C 42 0, 78 0, 120 86 S 198 172, 240 86 S 318 0, 360, 86" fill="none" stroke="#222" style="opacity:0.063333333333333;stroke-width:19px;" transform="translate(-60, 61)" /><path d="M0 86 C 42 0, 78 0, 120 86 S 198 172, 240 86 S 318 0, 360, 86" fill="none" stroke="#222" style="opacity:0.063333333333333;stroke-width:19px;" transform="translate(-60, 745)" /><path d="M0 86 C 42 0, 78 0, 120 86 S 198 172, 240 86 S 318 0, 360, 86" fill="none" stroke="#ddd" style="opacity:0.037333333333333;stroke-width:19px;" transform="translate(-60, 80)" /><path d="M0 86 C 42 0, 78 0, 120 86 S 198 172, 240 86 S 318 0, 360, 86" fill="none" stroke="#ddd" style="opacity:0.037333333333333;stroke-width:19px;" transform="translate(-60, 764)" /><path d="M0 86 C 42 0, 78 0, 120 86 S 198 172, 240 86 S 318 0, 360, 86" fill="none" stroke="#ddd" style="opacity:0.14133333333333;stroke-width:19px;" transform="translate(-60, 99)" /><path d="M0 86 C 42 0, 78 0, 120 86 S 198 172, 240 86 S 318 0, 360, 86" fill="none" stroke="#ddd" style="opacity:0.14133333333333;stroke-width:19px;" transform="translate(-60, 783)" /><path d="M0 86 C 42 0, 78 0, 120 86 S 198 172, 240 86 S 318 0, 360, 86" fill="none" stroke="#222" style="opacity:0.046;stroke-width:19px;" transform="translate(-60, 118)" /><path d="M0 86 C 42 0, 78 0, 120 86 S 198 172, 240 86 S 318 0, 360, 86" fill="none" stroke="#222" style="opacity:0.046;stroke-width:19px;" transform="translate(-60, 802)" /><path d="M0 86 C 42 0, 78 0, 120 86 S 198 172, 240 86 S 318 0, 360, 86" fill="none" stroke="#ddd" style="opacity:0.02;stroke-width:19px;" transform="translate(-60, 137)" /><path d="M0 86 C 42 0, 78 0, 120 86 S 198 172, 240 86 S 318 0, 360, 86" fill="none" stroke="#ddd" style="opacity:0.02;stroke-width:19px;" transform="translate(-60, 821)" /><path d="M0 86 C 42 0, 78 0, 120 86 S 198 172, 240 86 S 318 0, 360, 86" fill="none" stroke="#ddd" style="opacity:0.14133333333333;stroke-width:19px;" transform="translate(-60, 156)" /><path d="M0 86 C 42 0, 78 0, 120 86 S 198 172, 240 86 S 318 0, 360, 86" fill="none" stroke="#ddd" style="opacity:0.14133333333333;stroke-width:19px;" transform="translate(-60, 840)" /><path d="M0 86 C 42 0, 78 0, 120 86 S 198 172, 240 86 S 318 0, 360, 86" fill="none" stroke="#ddd" style="opacity:0.02;stroke-width:19px;" transform="translate(-60, 175)" /><path d="M0 86 C 42 0, 78 0, 120 86 S 198 172, 240 86 S 318 0, 360, 86" fill="none" stroke="#ddd" style="opacity:0.02;stroke-width:19px;" transform="translate(-60, 859)" /><path d="M0 86 C 42 0, 78 0, 120 86 S 198 172, 240 86 S 318 0, 360, 86" fill="none" stroke="#ddd" style="opacity:0.14133333333333;stroke-width:19px;" transform="translate(-60, 194)" /><path d="M0 86 C 42 0, 78 0, 120 86 S 198 172, 240 86 S 318 0, 360, 86" fill="none" stroke="#ddd" style="opacity:0.14133333333333;stroke-width:19px;" transform="translate(-60, 878)" /><path d="M0 86 C 42 0, 78 0, 120 86 S 198 172, 240 86 S 318 0, 360, 86" fill="none" stroke="#222" style="opacity:0.13266666666667;stroke-width:19px;" transform="translate(-60, 213)" /><path d="M0 86 C 42 0, 78 0, 120 86 S 198 172, 240 86 S 318 0, 360, 86" fill="none" stroke="#222" style="opacity:0.13266666666667;stroke-width:19px;" transform="translate(-60, 897)" /><path d="M0 86 C 42 0, 78 0, 120 86 S 198 172, 240 86 S 318 0, 360, 86" fill="none" stroke="#ddd" style="opacity:0.14133333333333;stroke-width:19px;" transform="translate(-60, 232)" /><path d="M0 86 C 42 0, 78 0, 120 86 S 198 172, 240 86 S 318 0, 360, 86" fill="none" stroke="#ddd" style="opacity:0.14133333333333;stroke-width:19px;" transform="translate(-60, 916)" /><path d="M0 86 C 42 0, 78 0, 120 86 S 198 172, 240 86 S 318 0, 360, 86" fill="none" stroke="#ddd" style="opacity:0.054666666666667;stroke-width:19px;" transform="translate(-60, 251)" /><path d="M0 86 C 42 0, 78 0, 120 86 S 198 172, 240 86 S 318 0, 360, 86" fill="none" stroke="#ddd" style="opacity:0.054666666666667;stroke-width:19px;" transform="translate(-60, 935)" /><path d="M0 86 C 42 0, 78 0, 120 86 S 198 172, 240 86 S 318 0, 360, 86" fill="none" stroke="#222" style="opacity:0.15;stroke-width:19px;" transform="translate(-60, 270)" /><path d="M0 86 C 42 0, 78 0, 120 86 S 198 172, 240 86 S 318 0, 360, 86" fill="none" stroke="#222" style="opacity:0.15;stroke-width:19px;" transform="translate(-60, 954)" /><path d="M0 86 C 42 0, 78 0, 120 86 S 198 172, 240 86 S 318 0, 360, 86" fill="none" stroke="#ddd" style="opacity:0.089333333333333;stroke-width:19px;" transform="translate(-60, 289)" /><path d="M0 86 C 42 0, 78 0, 120 86 S 198 172, 240 86 S 318 0, 360, 86" fill="none" stroke="#ddd" style="opacity:0.089333333333333;stroke-width:19px;" transform="translate(-60, 973)" /><path d="M0 86 C 42 0, 78 0, 120 86 S 198 172, 240 86 S 318 0, 360, 86" fill="none" stroke="#ddd" style="opacity:0.124;stroke-width:19px;" transform="translate(-60, 308)" /><path d="M0 86 C 42 0, 78 0, 120 86 S 198 172, 240 86 S 318 0, 360, 86" fill="none" stroke="#ddd" style="opacity:0.124;stroke-width:19px;" transform="translate(-60, 992)" /><path d="M0 86 C 42 0, 78 0, 120 86 S 198 172, 240 86 S 318 0, 360, 86" fill="none" stroke="#222" style="opacity:0.063333333333333;stroke-width:19px;" transform="translate(-60, 327)" /><path d="M0 86 C 42 0, 78 0, 120 86 S 198 172, 240 86 S 318 0, 360, 86" fill="none" stroke="#222" style="opacity:0.063333333333333;stroke-width:19px;" transform="translate(-60, 1011)" /><path d="M0 86 C 42 0, 78 0, 120 86 S 198 172, 240 86 S 318 0, 360, 86" fill="none" stroke="#ddd" style="opacity:0.054666666666667;stroke-width:19px;" transform="translate(-60, 346)" /><path d="M0 86 C 42 0, 78 0, 120 86 S 198 172, 240 86 S 318 0, 360, 86" fill="none" stroke="#ddd" style="opacity:0.054666666666667;stroke-width:19px;" transform="translate(-60, 1030)" /><path d="M0 86 C 42 0, 78 0, 120 86 S 198 172, 240 86 S 318 0, 360, 86" fill="none" stroke="#222" style="opacity:0.15;stroke-width:19px;" transform="translate(-60, 365)" /><path d="M0 86 C 42 0, 78 0, 120 86 S 198 172, 240 86 S 318 0, 360, 86" fill="none" stroke="#222" style="opacity:0.15;stroke-width:19px;" transform="translate(-60, 1049)" /><path d="M0 86 C 42 0, 78 0, 120 86 S 198 172, 240 86 S 318 0, 360, 86" fill="none" stroke="#222" style="opacity:0.13266666666667;stroke-width:19px;" transform="translate(-60, 384)" /><path d="M0 86 C 42 0, 78 0, 120 86 S 198 172, 240 86 S 318 0, 360, 86" fill="none" stroke="#222" style="opacity:0.13266666666667;stroke-width:19px;" transform="translate(-60, 1068)" /><path d="M0 86 C 42 0, 78 0, 120 86 S 198 172, 240 86 S 318 0, 360, 86" fill="none" stroke="#222" style="opacity:0.098;stroke-width:19px;" transform="translate(-60, 403)" /><path d="M0 86 C 42 0, 78 0, 120 86 S 198 172, 240 86 S 318 0, 360, 86" fill="none" stroke="#222" style="opacity:0.098;stroke-width:19px;" transform="translate(-60, 1087)" /><path d="M0 86 C 42 0, 78 0, 120 86 S 198 172, 240 86 S 318 0, 360, 86" fill="none" stroke="#222" style="opacity:0.11533333333333;stroke-width:19px;" transform="translate(-60, 422)" /><path d="M0 86 C 42 0, 78 0, 120 86 S 198 172, 240 86 S 318 0, 360, 86" fill="none" stroke="#222" style="opacity:0.11533333333333;stroke-width:19px;" transform="translate(-60, 1106)" /><path d="M0 86 C 42 0, 78 0, 120 86 S 198 172, 240 86 S 318 0, 360, 86" fill="none" stroke="#222" style="opacity:0.11533333333333;stroke-width:19px;" transform="translate(-60, 441)" /><path d="M0 86 C 42 0, 78 0, 120 86 S 198 172, 240 86 S 318 0, 360, 86" fill="none" stroke="#222" style="opacity:0.11533333333333;stroke-width:19px;" transform="translate(-60, 1125)" /><path d="M0 86 C 42 0, 78 0, 120 86 S 198 172, 240 86 S 318 0, 360, 86" fill="none" stroke="#ddd" style="opacity:0.10666666666667;stroke-width:19px;" transform="translate(-60, 460)" /><path d="M0 86 C 42 0, 78 0, 120 86 S 198 172, 240 86 S 318 0, 360, 86" fill="none" stroke="#ddd" style="opacity:0.10666666666667;stroke-width:19px;" transform="translate(-60, 1144)" /><path d="M0 86 C 42 0, 78 0, 120 86 S 198 172, 240 86 S 318 0, 360, 86" fill="none" stroke="#ddd" style="opacity:0.072;stroke-width:19px;" transform="translate(-60, 479)" /><path d="M0 86 C 42 0, 78 0, 120 86 S 198 172, 240 86 S 318 0, 360, 86" fill="none" stroke="#ddd" style="opacity:0.072;stroke-width:19px;" transform="translate(-60, 1163)" /><path d="M0 86 C 42 0, 78 0, 120 86 S 198 172, 240 86 S 318 0, 360, 86" fill="none" stroke="#222" style="opacity:0.080666666666667;stroke-width:19px;" transform="translate(-60, 498)" /><path d="M0 86 C 42 0, 78 0, 120 86 S 198 172, 240 86 S 318 0, 360, 86" fill="none" stroke="#222" style="opacity:0.080666666666667;stroke-width:19px;" transform="translate(-60, 1182)" /><path d="M0 86 C 42 0, 78 0, 120 86 S 198 172, 240 86 S 318 0, 360, 86" fill="none" stroke="#222" style="opacity:0.046;stroke-width:19px;" transform="translate(-60, 517)" /><path d="M0 86 C 42 0, 78 0, 120 86 S 198 172, 240 86 S 318 0, 360, 86" fill="none" stroke="#222" style="opacity:0.046;stroke-width:19px;" transform="translate(-60, 1201)" /><path d="M0 86 C 42 0, 78 0, 120 86 S 198 172, 240 86 S 318 0, 360, 86" fill="none" stroke="#ddd" style="opacity:0.14133333333333;stroke-width:19px;" transform="translate(-60, 536)" /><path d="M0 86 C 42 0, 78 0, 120 86 S 198 172, 240 86 S 318 0, 360, 86" fill="none" stroke="#ddd" style="opacity:0.14133333333333;stroke-width:19px;" transform="translate(-60, 1220)" /></svg>