<?xml version="1.0"?><svg xmlns="http://www.w3.org/2000/svg" width="127" height="127"><rect x="0" y="0" width="100%" height="100%" fill="rgb(116, 185, 255)" /><g fill="#222" style="opacity:0.063333333333333;" transform="translate(-21.2175, -21.2175) rotate(45, 21.2175, 21.2175)" ><rect x="15" y="0" width="15" height="45" /><rect x="0" y="15" width="45" height="15" /></g><g fill="#222" style="opacity:0.063333333333333;" transform="translate(106.0875, -21.2175) rotate(45, 21.2175, 21.2175)" ><rect x="15" y="0" width="15" height="45" /><rect x="0" y="15" width="45" height="15" /></g><g fill="#222" style="opacity:0.063333333333333;" transform="translate(-21.2175, 106.0875) rotate(45, 21.2175, 21.2175)" ><rect x="15" y="0" width="15" height="45" /><rect x="0" y="15" width="45" height="15" /></g><g fill="#222" style="opacity:0.063333333333333;" transform="translate(106.0875, 106.0875) rotate(45, 21.2175, 21.2175" ><rect x="15" y="0" width="15" height="45" /><rect x="0" y="15" width="45" height="15" /></g><g fill="#222" style="opacity:0.13266666666667;" transform="translate(0, -10.60875) rotate(45, 21.2175, 21.2175)" ><rect x="15" y="0" width="15" height="45" /><rect x="0" y="15" width="45" height="15" /></g><g fill="#222" style="opacity:0.13266666666667;" transform="translate(0, 116.69625) rotate(45, 21.2175, 21.2175)" ><rect x="15" y="0" width="15" height="45" /><rect x="0" y="15" width="45" height="15" /></g><g fill="#222" style="opacity:0.13266666666667;" transform="translate(21.2175, -21.2175) rotate(45, 21.2175, 21.2175)" ><rect x="15" y="0" width="15" height="45" /><rect x="0" y="15" width="45" height="15" /></g><g fill="#222" style="opacity:0.13266666666667;" transform="translate(21.2175, 106.0875) rotate(45, 21.2175, 21.2175)" ><rect x="15" y="0" width="15" height="45" /><rect x="0" y="15" width="45" height="15" /></g><g fill="#ddd" style="opacity:0.089333333333333;" transform="translate(42.435, -10.60875) rotate(45, 21.2175, 21.2175)" ><rect x="15" y="0" width="15" height="45" /><rect x="0" y="15" width="45" height="15" /></g><g fill="#ddd" style="opacity:0.089333333333333;" transform="translate(42.435, 116.69625) rotate(45, 21.2175, 21.2175)" ><rect x="15" y="0" width="15" height="45" /><rect x="0" y="15" width="45" height="15" /></g><g fill="#222" style="opacity:0.11533333333333;" transform="translate(63.6525, -21.2175) rotate(45, 21.2175, 21.2175)" ><rect x="15" y="0" width="15" height="45" /><rect x="0" y="15" width="45" height="15" /></g><g fill="#222" style="opacity:0.11533333333333;" transform="translate(63.6525, 106.0875) rotate(45, 21.2175, 21.2175)" ><rect x="15" y="0" width="15" height="45" /><rect x="0" y="15" width="45" height="15" /></g><g fill="#222" style="opacity:0.063333333333333;" transform="translate(84.87, -10.60875) rotate(45, 21.2175, 21.2175)" ><rect x="15" y="0" width="15" height="45" /><rect x="0" y="15" width="45" height="15" /></g><g fill="#222" style="opacity:0.063333333333333;" transform="translate(84.87, 116.69625) rotate(45, 21.2175, 21.2175)" ><rect x="15" y="0" width="15" height="45" /><rect x="0" y="15" width="45" height="15" /></g><g fill="#222" style="opacity:0.046;" transform="translate(-21.2175, 0) rotate(45, 21.2175, 21.2175)" ><rect x="15" y="0" width="15" height="45" /><rect x="0" y="15" width="45" height="15" /></g><g fill="#222" style="opacity:0.046;" transform="translate(106.0875, 0) rotate(45, 21.2175, 21.2175)" ><rect x="15" y="0" width="15" height="45" /><rect x="0" y="15" width="45" height="15" /></g><g fill="#ddd" style="opacity:0.10666666666667;" transform="translate(0, 10.60875) rotate(45, 21.2175, 21.2175)" ><rect x="15" y="0" width="15" height="45" /><rect x="0" y="15" width="45" height="15" /></g><g fill="#ddd" style="opacity:0.10666666666667;" transform="translate(21.2175, 0) rotate(45, 21.2175, 21.2175)" ><rect x="15" y="0" width="15" height="45" /><rect x="0" y="15" width="45" height="15" /></g><g fill="#ddd" style="opacity:0.124;" transform="translate(42.435, 10.60875) rotate(45, 21.2175, 21.2175)" ><rect x="15" y="0" width="15" height="45" /><rect x="0" y="15" width="45" height="15" /></g><g fill="#222" style="opacity:0.15;" transform="translate(63.6525, 0) rotate(45, 21.2175, 21.2175)" ><rect x="15" y="0" width="15" height="45" /><rect x="0" y="15" width="45" height="15" /></g><g fill="#ddd" style="opacity:0.124;" transform="translate(84.87, 10.60875) rotate(45, 21.2175, 21.2175)" ><rect x="15" y="0" width="15" height="45" /><rect x="0" y="15" width="45" height="15" /></g><g fill="#ddd" style="opacity:0.054666666666667;" transform="translate(-21.2175, 21.2175) rotate(45, 21.2175, 21.2175)" ><rect x="15" y="0" width="15" height="45" /><rect x="0" y="15" width="45" height="15" /></g><g fill="#ddd" style="opacity:0.054666666666667;" transform="translate(106.0875, 21.2175) rotate(45, 21.2175, 21.2175)" ><rect x="15" y="0" width="15" height="45" /><rect x="0" y="15" width="45" height="15" /></g><g fill="#ddd" style="opacity:0.072;" transform="translate(0, 31.82625) rotate(45, 21.2175, 21.2175)" ><rect x="15" y="0" width="15" height="45" /><rect x="0" y="15" width="45" height="15" /></g><g fill="#222" style="opacity:0.028666666666667;" transform="translate(21.2175, 21.2175) rotate(45, 21.2175, 21.2175)" ><rect x="15" y="0" width="15" height="45" /><rect x="0" y="15" width="45" height="15" /></g><g fill="#ddd" style="opacity:0.054666666666667;" transform="translate(42.435, 31.82625) rotate(45, 21.2175, 21.2175)" ><rect x="15" y="0" width="15" height="45" /><rect x="0" y="15" width="45" height="15" /></g><g fill="#ddd" style="opacity:0.02;" transform="translate(63.6525, 21.2175) rotate(45, 21.2175, 21.2175)" ><rect x="15" y="0" width="15" height="45" /><rect x="0" y="15" width="45" height="15" /></g><g fill="#222" style="opacity:0.080666666666667;" transform="translate(84.87, 31.82625) rotate(45, 21.2175, 21.2175)" ><rect x="15" y="0" width="15" height="45" /><rect x="0" y="15" width="45" height="15" /></g><g fill="#222" style="opacity:0.046;" transform="translate(-21.2175, 42.435) rotate(45, 21.2175, 21.2175)" ><rect x="15" y="0" width="15" height="45" /><rect x="0" y="15" width="45" height="15" /></g><g fill="#222" style="opacity:0.046;" transform="translate(106.0875, 42.435) rotate(45, 21.2175, 21.2175)" ><rect x="15" y="0" width="15" height="45" /><rect x="0" y="15" width="45" height="15" /></g><g fill="#222" style="opacity:0.046;" transform="translate(0, 53.04375) rotate(45, 21.2175, 21.2175)" ><rect x="15" y="0" width="15" height="45" /><rect x="0" y="15" width="45" height="15" /></g><g fill="#222" style="opacity:0.046;" transform="translate(21.2175, 42.435) rotate(45, 21.2175, 21.2175)" ><rect x="15" y="0" width="15" height="45" /><rect x="0" y="15" width="45" height="15" /></g><g fill="#ddd" style="opacity:0.124;" transform="translate(42.435, 53.04375) rotate(45, 21.2175, 21.2175)" ><rect x="15" y="0" width="15" height="45" /><rect x="0" y="15" width="45" height="15" /></g><g fill="#222" style="opacity:0.15;" transform="translate(63.6525, 42.435) rotate(45, 21.2175, 21.2175)" ><rect x="15" y="0" width="15" height="45" /><rect x="0" y="15" width="45" height="15" /></g><g fill="#222" style="opacity:0.15;" transform="translate(84.87, 53.04375) rotate(45, 21.2175, 21.2175)" ><rect x="15" y="0" width="15" height="45" /><rect x="0" y="15" width="45" height="15" /></g><g fill="#ddd" style="opacity:0.10666666666667;" transform="translate(-21.2175, 63.6525) rotate(45, 21.2175, 21.2175)" ><rect x="15" y="0" width="15" height="45" /><rect x="0" y="15" width="45" height="15" /></g><g fill="#ddd" style="opacity:0.10666666666667;" transform="translate(106.0875, 63.6525) rotate(45, 21.2175, 21.2175)" ><rect x="15" y="0" width="15" height="45" /><rect x="0" y="15" width="45" height="15" /></g><g fill="#ddd" style="opacity:0.124;" transform="translate(0, 74.26125) rotate(45, 21.2175, 21.2175)" ><rect x="15" y="0" width="15" height="45" /><rect x="0" y="15" width="45" height="15" /></g><g fill="#ddd" style="opacity:0.037333333333333;" transform="translate(21.2175, 63.6525) rotate(45, 21.2175, 21.2175)" ><rect x="15" y="0" width="15" height="45" /><rect x="0" y="15" width="45" height="15" /></g><g fill="#ddd" style="opacity:0.14133333333333;" transform="translate(42.435, 74.26125) rotate(45, 21.2175, 21.2175)" ><rect x="15" y="0" width="15" height="45" /><rect x="0" y="15" width="45" height="15" /></g><g fill="#ddd" style="opacity:0.054666666666667;" transform="translate(63.6525, 63.6525) rotate(45, 21.2175, 21.2175)" ><rect x="15" y="0" width="15" height="45" /><rect x="0" y="15" width="45" height="15" /></g><g fill="#ddd" style="opacity:0.10666666666667;" transform="translate(84.87, 74.26125) rotate(45, 21.2175, 21.2175)" ><rect x="15" y="0" width="15" height="45" /><rect x="0" y="15" width="45" height="15" /></g><g fill="#ddd" style="opacity:0.124;" transform="translate(-21.2175, 84.87) rotate(45, 21.2175, 21.2175)" ><rect x="15" y="0" width="15" height="45" /><rect x="0" y="15" width="45" height="15" /></g><g fill="#ddd" style="opacity:0.124;" transform="translate(106.0875, 84.87) rotate(45, 21.2175, 21.2175)" ><rect x="15" y="0" width="15" height="45" /><rect x="0" y="15" width="45" height="15" /></g><g fill="#ddd" style="opacity:0.124;" transform="translate(-21.2175, -42.435) rotate(45, 21.2175, 21.2175)" ><rect x="15" y="0" width="15" height="45" /><rect x="0" y="15" width="45" height="15" /></g><g fill="#ddd" style="opacity:0.124;" transform="translate(0, 95.47875) rotate(45, 21.2175, 21.2175)" ><rect x="15" y="0" width="15" height="45" /><rect x="0" y="15" width="45" height="15" /></g><g fill="#ddd" style="opacity:0.124;" transform="translate(0, -31.82625) rotate(45, 21.2175, 21.2175)" ><rect x="15" y="0" width="15" height="45" /><rect x="0" y="15" width="45" height="15" /></g><g fill="#ddd" style="opacity:0.14133333333333;" transform="translate(21.2175, 84.87) rotate(45, 21.2175, 21.2175)" ><rect x="15" y="0" width="15" height="45" /><rect x="0" y="15" width="45" height="15" /></g><g fill="#ddd" style="opacity:0.14133333333333;" transform="translate(21.2175, -42.435) rotate(45, 21.2175, 21.2175)" ><rect x="15" y="0" width="15" height="45" /><rect x="0" y="15" width="45" height="15" /></g><g fill="#222" style="opacity:0.046;" transform="translate(42.435, 95.47875) rotate(45, 21.2175, 21.2175)" ><rect x="15" y="0" width="15" height="45" /><rect x="0" y="15" width="45" height="15" /></g><g fill="#222" style="opacity:0.046;" transform="translate(42.435, -31.82625) rotate(45, 21.2175, 21.2175)" ><rect x="15" y="0" width="15" height="45" /><rect x="0" y="15" width="45" height="15" /></g><g fill="#222" style="opacity:0.046;" transform="translate(63.6525, 84.87) rotate(45, 21.2175, 21.2175)" ><rect x="15" y="0" width="15" height="45" /><rect x="0" y="15" width="45" height="15" /></g><g fill="#222" style="opacity:0.046;" transform="translate(63.6525, -42.435) rotate(45, 21.2175, 21.2175)" ><rect x="15" y="0" width="15" height="45" /><rect x="0" y="15" width="45" height="15" /></g><g fill="#222" style="opacity:0.046;" transform="translate(84.87, 95.47875) rotate(45, 21.2175, 21.2175)" ><rect x="15" y="0" width="15" height="45" /><rect x="0" y="15" width="45" height="15" /></g><g fill="#222" style="opacity:0.046;" transform="translate(84.87, -31.82625) rotate(45, 21.2175, 21.2175)" ><rect x="15" y="0" width="15" height="45" /><rect x="0" y="15" width="45" height="15" /></g></svg>