<?xml version="1.0"?><svg xmlns="http://www.w3.org/2000/svg" width="120" height="120"><rect x="0" y="0" width="100%" height="100%" fill="rgb(129, 236, 236)" /><circle cx="10" cy="10" r="8.3333333333333" fill="none" stroke="#ddd" style="opacity:0.037333333333333;stroke-width:3.3333333333333px;" /><circle cx="10" cy="10" r="4.1666666666667" fill="#222" fill-opacity="0.13266666666667" /><circle cx="30" cy="10" r="8.3333333333333" fill="none" stroke="#ddd" style="opacity:0.037333333333333;stroke-width:3.3333333333333px;" /><circle cx="30" cy="10" r="4.1666666666667" fill="#222" fill-opacity="0.046" /><circle cx="50" cy="10" r="8.3333333333333" fill="none" stroke="#222" style="opacity:0.13266666666667;stroke-width:3.3333333333333px;" /><circle cx="50" cy="10" r="4.1666666666667" fill="#ddd" fill-opacity="0.037333333333333" /><circle cx="70" cy="10" r="8.3333333333333" fill="none" stroke="#ddd" style="opacity:0.037333333333333;stroke-width:3.3333333333333px;" /><circle cx="70" cy="10" r="4.1666666666667" fill="#ddd" fill-opacity="0.124" /><circle cx="90" cy="10" r="8.3333333333333" fill="none" stroke="#ddd" style="opacity:0.02;stroke-width:3.3333333333333px;" /><circle cx="90" cy="10" r="4.1666666666667" fill="#222" fill-opacity="0.063333333333333" /><circle cx="110" cy="10" r="8.3333333333333" fill="none" stroke="#ddd" style="opacity:0.02;stroke-width:3.3333333333333px;" /><circle cx="110" cy="10" r="4.1666666666667" fill="#222" fill-opacity="0.098" /><circle cx="10" cy="30" r="8.3333333333333" fill="none" stroke="#222" style="opacity:0.15;stroke-width:3.3333333333333px;" /><circle cx="10" cy="30" r="4.1666666666667" fill="#ddd" fill-opacity="0.124" /><circle cx="30" cy="30" r="8.3333333333333" fill="none" stroke="#ddd" style="opacity:0.089333333333333;stroke-width:3.3333333333333px;" /><circle cx="30" cy="30" r="4.1666666666667" fill="#222" fill-opacity="0.080666666666667" /><circle cx="50" cy="30" r="8.3333333333333" fill="none" stroke="#ddd" style="opacity:0.072;stroke-width:3.3333333333333px;" /><circle cx="50" cy="30" r="4.1666666666667" fill="#222" fill-opacity="0.080666666666667" /><circle cx="70" cy="30" r="8.3333333333333" fill="none" stroke="#222" style="opacity:0.080666666666667;stroke-width:3.3333333333333px;" /><circle cx="70" cy="30" r="4.1666666666667" fill="#ddd" fill-opacity="0.054666666666667" /><circle cx="90" cy="30" r="8.3333333333333" fill="none" stroke="#ddd" style="opacity:0.02;stroke-width:3.3333333333333px;" /><circle cx="90" cy="30" r="4.1666666666667" fill="#ddd" fill-opacity="0.089333333333333" /><circle cx="110" cy="30" r="8.3333333333333" fill="none" stroke="#222" style="opacity:0.13266666666667;stroke-width:3.3333333333333px;" /><circle cx="110" cy="30" r="4.1666666666667" fill="#222" fill-opacity="0.098" /><circle cx="10" cy="50" r="8.3333333333333" fill="none" stroke="#222" style="opacity:0.11533333333333;stroke-width:3.3333333333333px;" /><circle cx="10" cy="50" r="4.1666666666667" fill="#ddd" fill-opacity="0.02" /><circle cx="30" cy="50" r="8.3333333333333" fill="none" stroke="#222" style="opacity:0.13266666666667;stroke-width:3.3333333333333px;" /><circle cx="30" cy="50" r="4.1666666666667" fill="#222" fill-opacity="0.063333333333333" /><circle cx="50" cy="50" r="8.3333333333333" fill="none" stroke="#222" style="opacity:0.11533333333333;stroke-width:3.3333333333333px;" /><circle cx="50" cy="50" r="4.1666666666667" fill="#ddd" fill-opacity="0.14133333333333" /><circle cx="70" cy="50" r="8.3333333333333" fill="none" stroke="#222" style="opacity:0.046;stroke-width:3.3333333333333px;" /><circle cx="70" cy="50" r="4.1666666666667" fill="#ddd" fill-opacity="0.14133333333333" /><circle cx="90" cy="50" r="8.3333333333333" fill="none" stroke="#ddd" style="opacity:0.14133333333333;stroke-width:3.3333333333333px;" /><circle cx="90" cy="50" r="4.1666666666667" fill="#ddd" fill-opacity="0.14133333333333" /><circle cx="110" cy="50" r="8.3333333333333" fill="none" stroke="#ddd" style="opacity:0.037333333333333;stroke-width:3.3333333333333px;" /><circle cx="110" cy="50" r="4.1666666666667" fill="#ddd" fill-opacity="0.02" /><circle cx="10" cy="70" r="8.3333333333333" fill="none" stroke="#222" style="opacity:0.063333333333333;stroke-width:3.3333333333333px;" /><circle cx="10" cy="70" r="4.1666666666667" fill="#222" fill-opacity="0.098" /><circle cx="30" cy="70" r="8.3333333333333" fill="none" stroke="#222" style="opacity:0.046;stroke-width:3.3333333333333px;" /><circle cx="30" cy="70" r="4.1666666666667" fill="#ddd" fill-opacity="0.10666666666667" /><circle cx="50" cy="70" r="8.3333333333333" fill="none" stroke="#ddd" style="opacity:0.10666666666667;stroke-width:3.3333333333333px;" /><circle cx="50" cy="70" r="4.1666666666667" fill="#222" fill-opacity="0.046" /><circle cx="70" cy="70" r="8.3333333333333" fill="none" stroke="#222" style="opacity:0.098;stroke-width:3.3333333333333px;" /><circle cx="70" cy="70" r="4.1666666666667" fill="#222" fill-opacity="0.063333333333333" /><circle cx="90" cy="70" r="8.3333333333333" fill="none" stroke="#ddd" style="opacity:0.02;stroke-width:3.3333333333333px;" /><circle cx="90" cy="70" r="4.1666666666667" fill="#ddd" fill-opacity="0.037333333333333" /><circle cx="110" cy="70" r="8.3333333333333" fill="none" stroke="#ddd" style="opacity:0.14133333333333;stroke-width:3.3333333333333px;" /><circle cx="110" cy="70" r="4.1666666666667" fill="#ddd" fill-opacity="0.14133333333333" /><circle cx="10" cy="90" r="8.3333333333333" fill="none" stroke="#ddd" style="opacity:0.14133333333333;stroke-width:3.3333333333333px;" /><circle cx="10" cy="90" r="4.1666666666667" fill="#222" fill-opacity="0.046" /><circle cx="30" cy="90" r="8.3333333333333" fill="none" stroke="#ddd" style="opacity:0.14133333333333;stroke-width:3.3333333333333px;" /><circle cx="30" cy="90" r="4.1666666666667" fill="#222" fill-opacity="0.11533333333333" /><circle cx="50" cy="90" r="8.3333333333333" fill="none" stroke="#222" style="opacity:0.063333333333333;stroke-width:3.3333333333333px;" /><circle cx="50" cy="90" r="4.1666666666667" fill="#222" fill-opacity="0.13266666666667" /><circle cx="70" cy="90" r="8.3333333333333" fill="none" stroke="#ddd" style="opacity:0.02;stroke-width:3.3333333333333px;" /><circle cx="70" cy="90" r="4.1666666666667" fill="#222" fill-opacity="0.11533333333333" /><circle cx="90" cy="90" r="8.3333333333333" fill="none" stroke="#222" style="opacity:0.098;stroke-width:3.3333333333333px;" /><circle cx="90" cy="90" r="4.1666666666667" fill="#222" fill-opacity="0.13266666666667" /><circle cx="110" cy="90" r="8.3333333333333" fill="none" stroke="#ddd" style="opacity:0.089333333333333;stroke-width:3.3333333333333px;" /><circle cx="110" cy="90" r="4.1666666666667" fill="#ddd" fill-opacity="0.02" /><circle cx="10" cy="110" r="8.3333333333333" fill="none" stroke="#ddd" style="opacity:0.054666666666667;stroke-width:3.3333333333333px;" /><circle cx="10" cy="110" r="4.1666666666667" fill="#222" fill-opacity="0.080666666666667" /><circle cx="30" cy="110" r="8.3333333333333" fill="none" stroke="#222" style="opacity:0.080666666666667;stroke-width:3.3333333333333px;" /><circle cx="30" cy="110" r="4.1666666666667" fill="#ddd" fill-opacity="0.072" /><circle cx="50" cy="110" r="8.3333333333333" fill="none" stroke="#222" style="opacity:0.080666666666667;stroke-width:3.3333333333333px;" /><circle cx="50" cy="110" r="4.1666666666667" fill="#ddd" fill-opacity="0.089333333333333" /><circle cx="70" cy="110" r="8.3333333333333" fill="none" stroke="#ddd" style="opacity:0.124;stroke-width:3.3333333333333px;" /><circle cx="70" cy="110" r="4.1666666666667" fill="#222" fill-opacity="0.15" /><circle cx="90" cy="110" r="8.3333333333333" fill="none" stroke="#222" style="opacity:0.098;stroke-width:3.3333333333333px;" /><circle cx="90" cy="110" r="4.1666666666667" fill="#ddd" fill-opacity="0.02" /><circle cx="110" cy="110" r="8.3333333333333" fill="none" stroke="#222" style="opacity:0.063333333333333;stroke-width:3.3333333333333px;" /><circle cx="110" cy="110" r="4.1666666666667" fill="#ddd" fill-opacity="0.02" /></svg>