<?xml version="1.0"?><svg xmlns="http://www.w3.org/2000/svg" width="180" height="180"><rect x="0" y="0" width="100%" height="100%" fill="rgb(116, 185, 255)" /><rect x="0" y="0" width="30" height="30" fill="#ddd" fill-opacity="0.072" stroke="#000" stroke-opacity="0.02" /><rect x="30" y="0" width="30" height="30" fill="#ddd" fill-opacity="0.072" stroke="#000" stroke-opacity="0.02" /><rect x="60" y="0" width="30" height="30" fill="#ddd" fill-opacity="0.089333333333333" stroke="#000" stroke-opacity="0.02" /><rect x="90" y="0" width="30" height="30" fill="#222" fill-opacity="0.15" stroke="#000" stroke-opacity="0.02" /><rect x="120" y="0" width="30" height="30" fill="#222" fill-opacity="0.046" stroke="#000" stroke-opacity="0.02" /><rect x="150" y="0" width="30" height="30" fill="#222" fill-opacity="0.080666666666667" stroke="#000" stroke-opacity="0.02" /><rect x="0" y="30" width="30" height="30" fill="#222" fill-opacity="0.13266666666667" stroke="#000" stroke-opacity="0.02" /><rect x="30" y="30" width="30" height="30" fill="#ddd" fill-opacity="0.089333333333333" stroke="#000" stroke-opacity="0.02" /><rect x="60" y="30" width="30" height="30" fill="#ddd" fill-opacity="0.124" stroke="#000" stroke-opacity="0.02" /><rect x="90" y="30" width="30" height="30" fill="#ddd" fill-opacity="0.089333333333333" stroke="#000" stroke-opacity="0.02" /><rect x="120" y="30" width="30" height="30" fill="#222" fill-opacity="0.13266666666667" stroke="#000" stroke-opacity="0.02" /><rect x="150" y="30" width="30" height="30" fill="#ddd" fill-opacity="0.14133333333333" stroke="#000" stroke-opacity="0.02" /><rect x="0" y="60" width="30" height="30" fill="#ddd" fill-opacity="0.089333333333333" stroke="#000" stroke-opacity="0.02" /><rect x="30" y="60" width="30" height="30" fill="#ddd" fill-opacity="0.124" stroke="#000" stroke-opacity="0.02" /><rect x="60" y="60" width="30" height="30" fill="#ddd" fill-opacity="0.14133333333333" stroke="#000" stroke-opacity="0.02" /><rect x="90" y="60" width="30" height="30" fill="#ddd" fill-opacity="0.10666666666667" stroke="#000" stroke-opacity="0.02" /><rect x="120" y="60" width="30" height="30" fill="#222" fill-opacity="0.15" stroke="#000" stroke-opacity="0.02" /><rect x="150" y="60" width="30" height="30" fill="#ddd" fill-opacity="0.10666666666667" stroke="#000" stroke-opacity="0.02" /><rect x="0" y="90" width="30" height="30" fill="#222" fill-opacity="0.028666666666667" stroke="#000" stroke-opacity="0.02" /><rect x="30" y="90" width="30" height="30" fill="#ddd" fill-opacity="0.02" stroke="#000" stroke-opacity="0.02" /><rect x="60" y="90" width="30" height="30" fill="#222" fill-opacity="0.098" stroke="#000" stroke-opacity="0.02" /><rect x="90" y="90" width="30" height="30" fill="#ddd" fill-opacity="0.037333333333333" stroke="#000" stroke-opacity="0.02" /><rect x="120" y="90" width="30" height="30" fill="#ddd" fill-opacity="0.054666666666667" stroke="#000" stroke-opacity="0.02" /><rect x="150" y="90" width="30" height="30" fill="#222" fill-opacity="0.098" stroke="#000" stroke-opacity="0.02" /><rect x="0" y="120" width="30" height="30" fill="#222" fill-opacity="0.063333333333333" stroke="#000" stroke-opacity="0.02" /><rect x="30" y="120" width="30" height="30" fill="#ddd" fill-opacity="0.10666666666667" stroke="#000" stroke-opacity="0.02" /><rect x="60" y="120" width="30" height="30" fill="#222" fill-opacity="0.080666666666667" stroke="#000" stroke-opacity="0.02" /><rect x="90" y="120" width="30" height="30" fill="#ddd" fill-opacity="0.089333333333333" stroke="#000" stroke-opacity="0.02" /><rect x="120" y="120" width="30" height="30" fill="#ddd" fill-opacity="0.10666666666667" stroke="#000" stroke-opacity="0.02" /><rect x="150" y="120" width="30" height="30" fill="#ddd" fill-opacity="0.10666666666667" stroke="#000" stroke-opacity="0.02" /><rect x="0" y="150" width="30" height="30" fill="#ddd" fill-opacity="0.10666666666667" stroke="#000" stroke-opacity="0.02" /><rect x="30" y="150" width="30" height="30" fill="#ddd" fill-opacity="0.10666666666667" stroke="#000" stroke-opacity="0.02" /><rect x="60" y="150" width="30" height="30" fill="#ddd" fill-opacity="0.02" stroke="#000" stroke-opacity="0.02" /><rect x="90" y="150" width="30" height="30" fill="#ddd" fill-opacity="0.14133333333333" stroke="#000" stroke-opacity="0.02" /><rect x="120" y="150" width="30" height="30" fill="#222" fill-opacity="0.15" stroke="#000" stroke-opacity="0.02" /><rect x="150" y="150" width="30" height="30" fill="#ddd" fill-opacity="0.14133333333333" stroke="#000" stroke-opacity="0.02" /></svg>