<?xml version="1.0"?><svg xmlns="http://www.w3.org/2000/svg" width="320" height="756"><rect x="0" y="0" width="100%" height="100%" fill="rgb(253, 121, 168)" /><path d="M0 76 C 56 0, 104 0, 160 76 S 264 152, 320 76 S 424 0, 480, 76" fill="none" stroke="#222" style="opacity:0.11533333333333;stroke-width:21px;" transform="translate(-80, -114)" /><path d="M0 76 C 56 0, 104 0, 160 76 S 264 152, 320 76 S 424 0, 480, 76" fill="none" stroke="#222" style="opacity:0.11533333333333;stroke-width:21px;" transform="translate(-80, 642)" /><path d="M0 76 C 56 0, 104 0, 160 76 S 264 152, 320 76 S 424 0, 480, 76" fill="none" stroke="#ddd" style="opacity:0.10666666666667;stroke-width:21px;" transform="translate(-80, -93)" /><path d="M0 76 C 56 0, 104 0, 160 76 S 264 152, 320 76 S 424 0, 480, 76" fill="none" stroke="#ddd" style="opacity:0.10666666666667;stroke-width:21px;" transform="translate(-80, 663)" /><path d="M0 76 C 56 0, 104 0, 160 76 S 264 152, 320 76 S 424 0, 480, 76" fill="none" stroke="#ddd" style="opacity:0.10666666666667;stroke-width:21px;" transform="translate(-80, -72)" /><path d="M0 76 C 56 0, 104 0, 160 76 S 264 152, 320 76 S 424 0, 480, 76" fill="none" stroke="#ddd" style="opacity:0.10666666666667;stroke-width:21px;" transform="translate(-80, 684)" /><path d="M0 76 C 56 0, 104 0, 160 76 S 264 152, 320 76 S 424 0, 480, 76" fill="none" stroke="#222" style="opacity:0.11533333333333;stroke-width:21px;" transform="translate(-80, -51)" /><path d="M0 76 C 56 0, 104 0, 160 76 S 264 152, 320 76 S 424 0, 480, 76" fill="none" stroke="#222" style="opacity:0.11533333333333;stroke-width:21px;" transform="translate(-80, 705)" /><path d="M0 76 C 56 0, 104 0, 160 76 S 264 152, 320 76 S 424 0, 480, 76" fill="none" stroke="#222" style="opacity:0.046;stroke-width:21px;" transform="translate(-80, -30)" /><path d="M0 76 C 56 0, 104 0, 160 76 S 264 152, 320 76 S 424 0, 480, 76" fill="none" stroke="#222" style="opacity:0.046;stroke-width:21px;" transform="translate(-80, 726)" /><path d="M0 76 C 56 0, 104 0, 160 76 S 264 152, 320 76 S 424 0, 480, 76" fill="none" stroke="#ddd" style="opacity:0.054666666666667;stroke-width:21px;" transform="translate(-80, -9)" /><path d="M0 76 C 56 0, 104 0, 160 76 S 264 152, 320 76 S 424 0, 480, 76" fill="none" stroke="#ddd" style="opacity:0.054666666666667;stroke-width:21px;" transform="translate(-80, 747)" /><path d="M0 76 C 56 0, 104 0, 160 76 S 264 152, 320 76 S 424 0, 480, 76" fill="none" stroke="#ddd" style="opacity:0.02;stroke-width:21px;" transform="translate(-80, 12)" /><path d="M0 76 C 56 0, 104 0, 160 76 S 264 152, 320 76 S 424 0, 480, 76" fill="none" stroke="#ddd" style="opacity:0.02;stroke-width:21px;" transform="translate(-80, 768)" /><path d="M0 76 C 56 0, 104 0, 160 76 S 264 152, 320 76 S 424 0, 480, 76" fill="none" stroke="#222" style="opacity:0.028666666666667;stroke-width:21px;" transform="translate(-80, 33)" /><path d="M0 76 C 56 0, 104 0, 160 76 S 264 152, 320 76 S 424 0, 480, 76" fill="none" stroke="#222" style="opacity:0.028666666666667;stroke-width:21px;" transform="translate(-80, 789)" /><path d="M0 76 C 56 0, 104 0, 160 76 S 264 152, 320 76 S 424 0, 480, 76" fill="none" stroke="#ddd" style="opacity:0.089333333333333;stroke-width:21px;" transform="translate(-80, 54)" /><path d="M0 76 C 56 0, 104 0, 160 76 S 264 152, 320 76 S 424 0, 480, 76" fill="none" stroke="#ddd" style="opacity:0.089333333333333;stroke-width:21px;" transform="translate(-80, 810)" /><path d="M0 76 C 56 0, 104 0, 160 76 S 264 152, 320 76 S 424 0, 480, 76" fill="none" stroke="#222" style="opacity:0.028666666666667;stroke-width:21px;" transform="translate(-80, 75)" /><path d="M0 76 C 56 0, 104 0, 160 76 S 264 152, 320 76 S 424 0, 480, 76" fill="none" stroke="#222" style="opacity:0.028666666666667;stroke-width:21px;" transform="translate(-80, 831)" /><path d="M0 76 C 56 0, 104 0, 160 76 S 264 152, 320 76 S 424 0, 480, 76" fill="none" stroke="#ddd" style="opacity:0.054666666666667;stroke-width:21px;" transform="translate(-80, 96)" /><path d="M0 76 C 56 0, 104 0, 160 76 S 264 152, 320 76 S 424 0, 480, 76" fill="none" stroke="#ddd" style="opacity:0.054666666666667;stroke-width:21px;" transform="translate(-80, 852)" /><path d="M0 76 C 56 0, 104 0, 160 76 S 264 152, 320 76 S 424 0, 480, 76" fill="none" stroke="#ddd" style="opacity:0.089333333333333;stroke-width:21px;" transform="translate(-80, 117)" /><path d="M0 76 C 56 0, 104 0, 160 76 S 264 152, 320 76 S 424 0, 480, 76" fill="none" stroke="#ddd" style="opacity:0.089333333333333;stroke-width:21px;" transform="translate(-80, 873)" /><path d="M0 76 C 56 0, 104 0, 160 76 S 264 152, 320 76 S 424 0, 480, 76" fill="none" stroke="#222" style="opacity:0.046;stroke-width:21px;" transform="translate(-80, 138)" /><path d="M0 76 C 56 0, 104 0, 160 76 S 264 152, 320 76 S 424 0, 480, 76" fill="none" stroke="#222" style="opacity:0.046;stroke-width:21px;" transform="translate(-80, 894)" /><path d="M0 76 C 56 0, 104 0, 160 76 S 264 152, 320 76 S 424 0, 480, 76" fill="none" stroke="#222" style="opacity:0.098;stroke-width:21px;" transform="translate(-80, 159)" /><path d="M0 76 C 56 0, 104 0, 160 76 S 264 152, 320 76 S 424 0, 480, 76" fill="none" stroke="#222" style="opacity:0.098;stroke-width:21px;" transform="translate(-80, 915)" /><path d="M0 76 C 56 0, 104 0, 160 76 S 264 152, 320 76 S 424 0, 480, 76" fill="none" stroke="#ddd" style="opacity:0.037333333333333;stroke-width:21px;" transform="translate(-80, 180)" /><path d="M0 76 C 56 0, 104 0, 160 76 S 264 152, 320 76 S 424 0, 480, 76" fill="none" stroke="#ddd" style="opacity:0.037333333333333;stroke-width:21px;" transform="translate(-80, 936)" /><path d="M0 76 C 56 0, 104 0, 160 76 S 264 152, 320 76 S 424 0, 480, 76" fill="none" stroke="#ddd" style="opacity:0.054666666666667;stroke-width:21px;" transform="translate(-80, 201)" /><path d="M0 76 C 56 0, 104 0, 160 76 S 264 152, 320 76 S 424 0, 480, 76" fill="none" stroke="#ddd" style="opacity:0.054666666666667;stroke-width:21px;" transform="translate(-80, 957)" /><path d="M0 76 C 56 0, 104 0, 160 76 S 264 152, 320 76 S 424 0, 480, 76" fill="none" stroke="#ddd" style="opacity:0.072;stroke-width:21px;" transform="translate(-80, 222)" /><path d="M0 76 C 56 0, 104 0, 160 76 S 264 152, 320 76 S 424 0, 480, 76" fill="none" stroke="#ddd" style="opacity:0.072;stroke-width:21px;" transform="translate(-80, 978)" /><path d="M0 76 C 56 0, 104 0, 160 76 S 264 152, 320 76 S 424 0, 480, 76" fill="none" stroke="#222" style="opacity:0.046;stroke-width:21px;" transform="translate(-80, 243)" /><path d="M0 76 C 56 0, 104 0, 160 76 S 264 152, 320 76 S 424 0, 480, 76" fill="none" stroke="#222" style="opacity:0.046;stroke-width:21px;" transform="translate(-80, 999)" /><path d="M0 76 C 56 0, 104 0, 160 76 S 264 152, 320 76 S 424 0, 480, 76" fill="none" stroke="#ddd" style="opacity:0.14133333333333;stroke-width:21px;" transform="translate(-80, 264)" /><path d="M0 76 C 56 0, 104 0, 160 76 S 264 152, 320 76 S 424 0, 480, 76" fill="none" stroke="#ddd" style="opacity:0.14133333333333;stroke-width:21px;" transform="translate(-80, 1020)" /><path d="M0 76 C 56 0, 104 0, 160 76 S 264 152, 320 76 S 424 0, 480, 76" fill="none" stroke="#222" style="opacity:0.15;stroke-width:21px;" transform="translate(-80, 285)" /><path d="M0 76 C 56 0, 104 0, 160 76 S 264 152, 320 76 S 424 0, 480, 76" fill="none" stroke="#222" style="opacity:0.15;stroke-width:21px;" transform="translate(-80, 1041)" /><path d="M0 76 C 56 0, 104 0, 160 76 S 264 152, 320 76 S 424 0, 480, 76" fill="none" stroke="#ddd" style="opacity:0.054666666666667;stroke-width:21px;" transform="translate(-80, 306)" /><path d="M0 76 C 56 0, 104 0, 160 76 S 264 152, 320 76 S 424 0, 480, 76" fill="none" stroke="#ddd" style="opacity:0.054666666666667;stroke-width:21px;" transform="translate(-80, 1062)" /><path d="M0 76 C 56 0, 104 0, 160 76 S 264 152, 320 76 S 424 0, 480, 76" fill="none" stroke="#ddd" style="opacity:0.124;stroke-width:21px;" transform="translate(-80, 327)" /><path d="M0 76 C 56 0, 104 0, 160 76 S 264 152, 320 76 S 424 0, 480, 76" fill="none" stroke="#ddd" style="opacity:0.124;stroke-width:21px;" transform="translate(-80, 1083)" /><path d="M0 76 C 56 0, 104 0, 160 76 S 264 152, 320 76 S 424 0, 480, 76" fill="none" stroke="#ddd" style="opacity:0.054666666666667;stroke-width:21px;" transform="translate(-80, 348)" /><path d="M0 76 C 56 0, 104 0, 160 76 S 264 152, 320 76 S 424 0, 480, 76" fill="none" stroke="#ddd" style="opacity:0.054666666666667;stroke-width:21px;" transform="translate(-80, 1104)" /><path d="M0 76 C 56 0, 104 0, 160 76 S 264 152, 320 76 S 424 0, 480, 76" fill="none" stroke="#222" style="opacity:0.098;stroke-width:21px;" transform="translate(-80, 369)" /><path d="M0 76 C 56 0, 104 0, 160 76 S 264 152, 320 76 S 424 0, 480, 76" fill="none" stroke="#222" style="opacity:0.098;stroke-width:21px;" transform="translate(-80, 1125)" /><path d="M0 76 C 56 0, 104 0, 160 76 S 264 152, 320 76 S 424 0, 480, 76" fill="none" stroke="#222" style="opacity:0.11533333333333;stroke-width:21px;" transform="translate(-80, 390)" /><path d="M0 76 C 56 0, 104 0, 160 76 S 264 152, 320 76 S 424 0, 480, 76" fill="none" stroke="#222" style="opacity:0.11533333333333;stroke-width:21px;" transform="translate(-80, 1146)" /><path d="M0 76 C 56 0, 104 0, 160 76 S 264 152, 320 76 S 424 0, 480, 76" fill="none" stroke="#222" style="opacity:0.063333333333333;stroke-width:21px;" transform="translate(-80, 411)" /><path d="M0 76 C 56 0, 104 0, 160 76 S 264 152, 320 76 S 424 0, 480, 76" fill="none" stroke="#222" style="opacity:0.063333333333333;stroke-width:21px;" transform="translate(-80, 1167)" /><path d="M0 76 C 56 0, 104 0, 160 76 S 264 152, 320 76 S 424 0, 480, 76" fill="none" stroke="#ddd" style="opacity:0.10666666666667;stroke-width:21px;" transform="translate(-80, 432)" /><path d="M0 76 C 56 0, 104 0, 160 76 S 264 152, 320 76 S 424 0, 480, 76" fill="none" stroke="#ddd" style="opacity:0.10666666666667;stroke-width:21px;" transform="translate(-80, 1188)" /><path d="M0 76 C 56 0, 104 0, 160 76 S 264 152, 320 76 S 424 0, 480, 76" fill="none" stroke="#222" style="opacity:0.098;stroke-width:21px;" transform="translate(-80, 453)" /><path d="M0 76 C 56 0, 104 0, 160 76 S 264 152, 320 76 S 424 0, 480, 76" fill="none" stroke="#222" style="opacity:0.098;stroke-width:21px;" transform="translate(-80, 1209)" /><path d="M0 76 C 56 0, 104 0, 160 76 S 264 152, 320 76 S 424 0, 480, 76" fill="none" stroke="#ddd" style="opacity:0.037333333333333;stroke-width:21px;" transform="translate(-80, 474)" /><path d="M0 76 C 56 0, 104 0, 160 76 S 264 152, 320 76 S 424 0, 480, 76" fill="none" stroke="#ddd" style="opacity:0.037333333333333;stroke-width:21px;" transform="translate(-80, 1230)" /><path d="M0 76 C 56 0, 104 0, 160 76 S 264 152, 320 76 S 424 0, 480, 76" fill="none" stroke="#ddd" style="opacity:0.054666666666667;stroke-width:21px;" transform="translate(-80, 495)" /><path d="M0 76 C 56 0, 104 0, 160 76 S 264 152, 320 76 S 424 0, 480, 76" fill="none" stroke="#ddd" style="opacity:0.054666666666667;stroke-width:21px;" transform="translate(-80, 1251)" /><path d="M0 76 C 56 0, 104 0, 160 76 S 264 152, 320 76 S 424 0, 480, 76" fill="none" stroke="#ddd" style="opacity:0.054666666666667;stroke-width:21px;" transform="translate(-80, 516)" /><path d="M0 76 C 56 0, 104 0, 160 76 S 264 152, 320 76 S 424 0, 480, 76" fill="none" stroke="#ddd" style="opacity:0.054666666666667;stroke-width:21px;" transform="translate(-80, 1272)" /><path d="M0 76 C 56 0, 104 0, 160 76 S 264 152, 320 76 S 424 0, 480, 76" fill="none" stroke="#ddd" style="opacity:0.02;stroke-width:21px;" transform="translate(-80, 537)" /><path d="M0 76 C 56 0, 104 0, 160 76 S 264 152, 320 76 S 424 0, 480, 76" fill="none" stroke="#ddd" style="opacity:0.02;stroke-width:21px;" transform="translate(-80, 1293)" /><path d="M0 76 C 56 0, 104 0, 160 76 S 264 152, 320 76 S 424 0, 480, 76" fill="none" stroke="#222" style="opacity:0.098;stroke-width:21px;" transform="translate(-80, 558)" /><path d="M0 76 C 56 0, 104 0, 160 76 S 264 152, 320 76 S 424 0, 480, 76" fill="none" stroke="#222" style="opacity:0.098;stroke-width:21px;" transform="translate(-80, 1314)" /><path d="M0 76 C 56 0, 104 0, 160 76 S 264 152, 320 76 S 424 0, 480, 76" fill="none" stroke="#ddd" style="opacity:0.124;stroke-width:21px;" transform="translate(-80, 579)" /><path d="M0 76 C 56 0, 104 0, 160 76 S 264 152, 320 76 S 424 0, 480, 76" fill="none" stroke="#ddd" style="opacity:0.124;stroke-width:21px;" transform="translate(-80, 1335)" /><path d="M0 76 C 56 0, 104 0, 160 76 S 264 152, 320 76 S 424 0, 480, 76" fill="none" stroke="#222" style="opacity:0.15;stroke-width:21px;" transform="translate(-80, 600)" /><path d="M0 76 C 56 0, 104 0, 160 76 S 264 152, 320 76 S 424 0, 480, 76" fill="none" stroke="#222" style="opacity:0.15;stroke-width:21px;" transform="translate(-80, 1356)" /><path d="M0 76 C 56 0, 104 0, 160 76 S 264 152, 320 76 S 424 0, 480, 76" fill="none" stroke="#222" style="opacity:0.063333333333333;stroke-width:21px;" transform="translate(-80, 621)" /><path d="M0 76 C 56 0, 104 0, 160 76 S 264 152, 320 76 S 424 0, 480, 76" fill="none" stroke="#222" style="opacity:0.063333333333333;stroke-width:21px;" transform="translate(-80, 1377)" /></svg>