<?xml version="1.0"?><svg xmlns="http://www.w3.org/2000/svg" width="180" height="936"><rect x="0" y="0" width="100%" height="100%" fill="rgb(116, 185, 255)" /><path d="M0 86 C 31.5 0, 59 0, 90 86 S 149 172, 180 86 S 239 0, 270, 86" fill="none" stroke="#ddd" style="opacity:0.054666666666667;stroke-width:26px;" transform="translate(-45, -129)" /><path d="M0 86 C 31.5 0, 59 0, 90 86 S 149 172, 180 86 S 239 0, 270, 86" fill="none" stroke="#ddd" style="opacity:0.054666666666667;stroke-width:26px;" transform="translate(-45, 807)" /><path d="M0 86 C 31.5 0, 59 0, 90 86 S 149 172, 180 86 S 239 0, 270, 86" fill="none" stroke="#ddd" style="opacity:0.124;stroke-width:26px;" transform="translate(-45, -103)" /><path d="M0 86 C 31.5 0, 59 0, 90 86 S 149 172, 180 86 S 239 0, 270, 86" fill="none" stroke="#ddd" style="opacity:0.124;stroke-width:26px;" transform="translate(-45, 833)" /><path d="M0 86 C 31.5 0, 59 0, 90 86 S 149 172, 180 86 S 239 0, 270, 86" fill="none" stroke="#222" style="opacity:0.13266666666667;stroke-width:26px;" transform="translate(-45, -77)" /><path d="M0 86 C 31.5 0, 59 0, 90 86 S 149 172, 180 86 S 239 0, 270, 86" fill="none" stroke="#222" style="opacity:0.13266666666667;stroke-width:26px;" transform="translate(-45, 859)" /><path d="M0 86 C 31.5 0, 59 0, 90 86 S 149 172, 180 86 S 239 0, 270, 86" fill="none" stroke="#ddd" style="opacity:0.072;stroke-width:26px;" transform="translate(-45, -51)" /><path d="M0 86 C 31.5 0, 59 0, 90 86 S 149 172, 180 86 S 239 0, 270, 86" fill="none" stroke="#ddd" style="opacity:0.072;stroke-width:26px;" transform="translate(-45, 885)" /><path d="M0 86 C 31.5 0, 59 0, 90 86 S 149 172, 180 86 S 239 0, 270, 86" fill="none" stroke="#ddd" style="opacity:0.072;stroke-width:26px;" transform="translate(-45, -25)" /><path d="M0 86 C 31.5 0, 59 0, 90 86 S 149 172, 180 86 S 239 0, 270, 86" fill="none" stroke="#ddd" style="opacity:0.072;stroke-width:26px;" transform="translate(-45, 911)" /><path d="M0 86 C 31.5 0, 59 0, 90 86 S 149 172, 180 86 S 239 0, 270, 86" fill="none" stroke="#222" style="opacity:0.13266666666667;stroke-width:26px;" transform="translate(-45, 1)" /><path d="M0 86 C 31.5 0, 59 0, 90 86 S 149 172, 180 86 S 239 0, 270, 86" fill="none" stroke="#222" style="opacity:0.13266666666667;stroke-width:26px;" transform="translate(-45, 937)" /><path d="M0 86 C 31.5 0, 59 0, 90 86 S 149 172, 180 86 S 239 0, 270, 86" fill="none" stroke="#222" style="opacity:0.15;stroke-width:26px;" transform="translate(-45, 27)" /><path d="M0 86 C 31.5 0, 59 0, 90 86 S 149 172, 180 86 S 239 0, 270, 86" fill="none" stroke="#222" style="opacity:0.15;stroke-width:26px;" transform="translate(-45, 963)" /><path d="M0 86 C 31.5 0, 59 0, 90 86 S 149 172, 180 86 S 239 0, 270, 86" fill="none" stroke="#ddd" style="opacity:0.10666666666667;stroke-width:26px;" transform="translate(-45, 53)" /><path d="M0 86 C 31.5 0, 59 0, 90 86 S 149 172, 180 86 S 239 0, 270, 86" fill="none" stroke="#ddd" style="opacity:0.10666666666667;stroke-width:26px;" transform="translate(-45, 989)" /><path d="M0 86 C 31.5 0, 59 0, 90 86 S 149 172, 180 86 S 239 0, 270, 86" fill="none" stroke="#222" style="opacity:0.11533333333333;stroke-width:26px;" transform="translate(-45, 79)" /><path d="M0 86 C 31.5 0, 59 0, 90 86 S 149 172, 180 86 S 239 0, 270, 86" fill="none" stroke="#222" style="opacity:0.11533333333333;stroke-width:26px;" transform="translate(-45, 1015)" /><path d="M0 86 C 31.5 0, 59 0, 90 86 S 149 172, 180 86 S 239 0, 270, 86" fill="none" stroke="#222" style="opacity:0.11533333333333;stroke-width:26px;" transform="translate(-45, 105)" /><path d="M0 86 C 31.5 0, 59 0, 90 86 S 149 172, 180 86 S 239 0, 270, 86" fill="none" stroke="#222" style="opacity:0.11533333333333;stroke-width:26px;" transform="translate(-45, 1041)" /><path d="M0 86 C 31.5 0, 59 0, 90 86 S 149 172, 180 86 S 239 0, 270, 86" fill="none" stroke="#222" style="opacity:0.13266666666667;stroke-width:26px;" transform="translate(-45, 131)" /><path d="M0 86 C 31.5 0, 59 0, 90 86 S 149 172, 180 86 S 239 0, 270, 86" fill="none" stroke="#222" style="opacity:0.13266666666667;stroke-width:26px;" transform="translate(-45, 1067)" /><path d="M0 86 C 31.5 0, 59 0, 90 86 S 149 172, 180 86 S 239 0, 270, 86" fill="none" stroke="#222" style="opacity:0.098;stroke-width:26px;" transform="translate(-45, 157)" /><path d="M0 86 C 31.5 0, 59 0, 90 86 S 149 172, 180 86 S 239 0, 270, 86" fill="none" stroke="#222" style="opacity:0.098;stroke-width:26px;" transform="translate(-45, 1093)" /><path d="M0 86 C 31.5 0, 59 0, 90 86 S 149 172, 180 86 S 239 0, 270, 86" fill="none" stroke="#ddd" style="opacity:0.072;stroke-width:26px;" transform="translate(-45, 183)" /><path d="M0 86 C 31.5 0, 59 0, 90 86 S 149 172, 180 86 S 239 0, 270, 86" fill="none" stroke="#ddd" style="opacity:0.072;stroke-width:26px;" transform="translate(-45, 1119)" /><path d="M0 86 C 31.5 0, 59 0, 90 86 S 149 172, 180 86 S 239 0, 270, 86" fill="none" stroke="#ddd" style="opacity:0.054666666666667;stroke-width:26px;" transform="translate(-45, 209)" /><path d="M0 86 C 31.5 0, 59 0, 90 86 S 149 172, 180 86 S 239 0, 270, 86" fill="none" stroke="#ddd" style="opacity:0.054666666666667;stroke-width:26px;" transform="translate(-45, 1145)" /><path d="M0 86 C 31.5 0, 59 0, 90 86 S 149 172, 180 86 S 239 0, 270, 86" fill="none" stroke="#222" style="opacity:0.15;stroke-width:26px;" transform="translate(-45, 235)" /><path d="M0 86 C 31.5 0, 59 0, 90 86 S 149 172, 180 86 S 239 0, 270, 86" fill="none" stroke="#222" style="opacity:0.15;stroke-width:26px;" transform="translate(-45, 1171)" /><path d="M0 86 C 31.5 0, 59 0, 90 86 S 149 172, 180 86 S 239 0, 270, 86" fill="none" stroke="#ddd" style="opacity:0.089333333333333;stroke-width:26px;" transform="translate(-45, 261)" /><path d="M0 86 C 31.5 0, 59 0, 90 86 S 149 172, 180 86 S 239 0, 270, 86" fill="none" stroke="#ddd" style="opacity:0.089333333333333;stroke-width:26px;" transform="translate(-45, 1197)" /><path d="M0 86 C 31.5 0, 59 0, 90 86 S 149 172, 180 86 S 239 0, 270, 86" fill="none" stroke="#ddd" style="opacity:0.124;stroke-width:26px;" transform="translate(-45, 287)" /><path d="M0 86 C 31.5 0, 59 0, 90 86 S 149 172, 180 86 S 239 0, 270, 86" fill="none" stroke="#ddd" style="opacity:0.124;stroke-width:26px;" transform="translate(-45, 1223)" /><path d="M0 86 C 31.5 0, 59 0, 90 86 S 149 172, 180 86 S 239 0, 270, 86" fill="none" stroke="#ddd" style="opacity:0.072;stroke-width:26px;" transform="translate(-45, 313)" /><path d="M0 86 C 31.5 0, 59 0, 90 86 S 149 172, 180 86 S 239 0, 270, 86" fill="none" stroke="#ddd" style="opacity:0.072;stroke-width:26px;" transform="translate(-45, 1249)" /><path d="M0 86 C 31.5 0, 59 0, 90 86 S 149 172, 180 86 S 239 0, 270, 86" fill="none" stroke="#ddd" style="opacity:0.124;stroke-width:26px;" transform="translate(-45, 339)" /><path d="M0 86 C 31.5 0, 59 0, 90 86 S 149 172, 180 86 S 239 0, 270, 86" fill="none" stroke="#ddd" style="opacity:0.124;stroke-width:26px;" transform="translate(-45, 1275)" /><path d="M0 86 C 31.5 0, 59 0, 90 86 S 149 172, 180 86 S 239 0, 270, 86" fill="none" stroke="#ddd" style="opacity:0.054666666666667;stroke-width:26px;" transform="translate(-45, 365)" /><path d="M0 86 C 31.5 0, 59 0, 90 86 S 149 172, 180 86 S 239 0, 270, 86" fill="none" stroke="#ddd" style="opacity:0.054666666666667;stroke-width:26px;" transform="translate(-45, 1301)" /><path d="M0 86 C 31.5 0, 59 0, 90 86 S 149 172, 180 86 S 239 0, 270, 86" fill="none" stroke="#ddd" style="opacity:0.054666666666667;stroke-width:26px;" transform="translate(-45, 391)" /><path d="M0 86 C 31.5 0, 59 0, 90 86 S 149 172, 180 86 S 239 0, 270, 86" fill="none" stroke="#ddd" style="opacity:0.054666666666667;stroke-width:26px;" transform="translate(-45, 1327)" /><path d="M0 86 C 31.5 0, 59 0, 90 86 S 149 172, 180 86 S 239 0, 270, 86" fill="none" stroke="#222" style="opacity:0.028666666666667;stroke-width:26px;" transform="translate(-45, 417)" /><path d="M0 86 C 31.5 0, 59 0, 90 86 S 149 172, 180 86 S 239 0, 270, 86" fill="none" stroke="#222" style="opacity:0.028666666666667;stroke-width:26px;" transform="translate(-45, 1353)" /><path d="M0 86 C 31.5 0, 59 0, 90 86 S 149 172, 180 86 S 239 0, 270, 86" fill="none" stroke="#ddd" style="opacity:0.054666666666667;stroke-width:26px;" transform="translate(-45, 443)" /><path d="M0 86 C 31.5 0, 59 0, 90 86 S 149 172, 180 86 S 239 0, 270, 86" fill="none" stroke="#ddd" style="opacity:0.054666666666667;stroke-width:26px;" transform="translate(-45, 1379)" /><path d="M0 86 C 31.5 0, 59 0, 90 86 S 149 172, 180 86 S 239 0, 270, 86" fill="none" stroke="#222" style="opacity:0.11533333333333;stroke-width:26px;" transform="translate(-45, 469)" /><path d="M0 86 C 31.5 0, 59 0, 90 86 S 149 172, 180 86 S 239 0, 270, 86" fill="none" stroke="#222" style="opacity:0.11533333333333;stroke-width:26px;" transform="translate(-45, 1405)" /><path d="M0 86 C 31.5 0, 59 0, 90 86 S 149 172, 180 86 S 239 0, 270, 86" fill="none" stroke="#ddd" style="opacity:0.02;stroke-width:26px;" transform="translate(-45, 495)" /><path d="M0 86 C 31.5 0, 59 0, 90 86 S 149 172, 180 86 S 239 0, 270, 86" fill="none" stroke="#ddd" style="opacity:0.02;stroke-width:26px;" transform="translate(-45, 1431)" /><path d="M0 86 C 31.5 0, 59 0, 90 86 S 149 172, 180 86 S 239 0, 270, 86" fill="none" stroke="#222" style="opacity:0.080666666666667;stroke-width:26px;" transform="translate(-45, 521)" /><path d="M0 86 C 31.5 0, 59 0, 90 86 S 149 172, 180 86 S 239 0, 270, 86" fill="none" stroke="#222" style="opacity:0.080666666666667;stroke-width:26px;" transform="translate(-45, 1457)" /><path d="M0 86 C 31.5 0, 59 0, 90 86 S 149 172, 180 86 S 239 0, 270, 86" fill="none" stroke="#ddd" style="opacity:0.124;stroke-width:26px;" transform="translate(-45, 547)" /><path d="M0 86 C 31.5 0, 59 0, 90 86 S 149 172, 180 86 S 239 0, 270, 86" fill="none" stroke="#ddd" style="opacity:0.124;stroke-width:26px;" transform="translate(-45, 1483)" /><path d="M0 86 C 31.5 0, 59 0, 90 86 S 149 172, 180 86 S 239 0, 270, 86" fill="none" stroke="#222" style="opacity:0.13266666666667;stroke-width:26px;" transform="translate(-45, 573)" /><path d="M0 86 C 31.5 0, 59 0, 90 86 S 149 172, 180 86 S 239 0, 270, 86" fill="none" stroke="#222" style="opacity:0.13266666666667;stroke-width:26px;" transform="translate(-45, 1509)" /><path d="M0 86 C 31.5 0, 59 0, 90 86 S 149 172, 180 86 S 239 0, 270, 86" fill="none" stroke="#222" style="opacity:0.11533333333333;stroke-width:26px;" transform="translate(-45, 599)" /><path d="M0 86 C 31.5 0, 59 0, 90 86 S 149 172, 180 86 S 239 0, 270, 86" fill="none" stroke="#222" style="opacity:0.11533333333333;stroke-width:26px;" transform="translate(-45, 1535)" /><path d="M0 86 C 31.5 0, 59 0, 90 86 S 149 172, 180 86 S 239 0, 270, 86" fill="none" stroke="#ddd" style="opacity:0.054666666666667;stroke-width:26px;" transform="translate(-45, 625)" /><path d="M0 86 C 31.5 0, 59 0, 90 86 S 149 172, 180 86 S 239 0, 270, 86" fill="none" stroke="#ddd" style="opacity:0.054666666666667;stroke-width:26px;" transform="translate(-45, 1561)" /><path d="M0 86 C 31.5 0, 59 0, 90 86 S 149 172, 180 86 S 239 0, 270, 86" fill="none" stroke="#222" style="opacity:0.063333333333333;stroke-width:26px;" transform="translate(-45, 651)" /><path d="M0 86 C 31.5 0, 59 0, 90 86 S 149 172, 180 86 S 239 0, 270, 86" fill="none" stroke="#222" style="opacity:0.063333333333333;stroke-width:26px;" transform="translate(-45, 1587)" /><path d="M0 86 C 31.5 0, 59 0, 90 86 S 149 172, 180 86 S 239 0, 270, 86" fill="none" stroke="#222" style="opacity:0.13266666666667;stroke-width:26px;" transform="translate(-45, 677)" /><path d="M0 86 C 31.5 0, 59 0, 90 86 S 149 172, 180 86 S 239 0, 270, 86" fill="none" stroke="#222" style="opacity:0.13266666666667;stroke-width:26px;" transform="translate(-45, 1613)" /><path d="M0 86 C 31.5 0, 59 0, 90 86 S 149 172, 180 86 S 239 0, 270, 86" fill="none" stroke="#ddd" style="opacity:0.10666666666667;stroke-width:26px;" transform="translate(-45, 703)" /><path d="M0 86 C 31.5 0, 59 0, 90 86 S 149 172, 180 86 S 239 0, 270, 86" fill="none" stroke="#ddd" style="opacity:0.10666666666667;stroke-width:26px;" transform="translate(-45, 1639)" /><path d="M0 86 C 31.5 0, 59 0, 90 86 S 149 172, 180 86 S 239 0, 270, 86" fill="none" stroke="#ddd" style="opacity:0.14133333333333;stroke-width:26px;" transform="translate(-45, 729)" /><path d="M0 86 C 31.5 0, 59 0, 90 86 S 149 172, 180 86 S 239 0, 270, 86" fill="none" stroke="#ddd" style="opacity:0.14133333333333;stroke-width:26px;" transform="translate(-45, 1665)" /><path d="M0 86 C 31.5 0, 59 0, 90 86 S 149 172, 180 86 S 239 0, 270, 86" fill="none" stroke="#ddd" style="opacity:0.072;stroke-width:26px;" transform="translate(-45, 755)" /><path d="M0 86 C 31.5 0, 59 0, 90 86 S 149 172, 180 86 S 239 0, 270, 86" fill="none" stroke="#ddd" style="opacity:0.072;stroke-width:26px;" transform="translate(-45, 1691)" /><path d="M0 86 C 31.5 0, 59 0, 90 86 S 149 172, 180 86 S 239 0, 270, 86" fill="none" stroke="#222" style="opacity:0.098;stroke-width:26px;" transform="translate(-45, 781)" /><path d="M0 86 C 31.5 0, 59 0, 90 86 S 149 172, 180 86 S 239 0, 270, 86" fill="none" stroke="#222" style="opacity:0.098;stroke-width:26px;" transform="translate(-45, 1717)" /></svg>