<?xml version="1.0"?><svg xmlns="http://www.w3.org/2000/svg" width="446" height="515"><rect x="0" y="0" width="100%" height="100%" fill="rgb(108, 92, 231)" /><polyline points="0,42.954860027708,24.8,0,74.4,0,99.2,42.954860027708,74.4,85.909720055416,24.8,85.909720055416,0,42.954860027708" stroke="#000" stroke-opacity="0.02" fill-opacity="0.124" fill="#ddd" transform="translate(-49.6, -42.954860027708)" /><polyline points="0,42.954860027708,24.8,0,74.4,0,99.2,42.954860027708,74.4,85.909720055416,24.8,85.909720055416,0,42.954860027708" stroke="#000" stroke-opacity="0.02" fill-opacity="0.124" fill="#ddd" transform="translate(396.8, -42.954860027708)" /><polyline points="0,42.954860027708,24.8,0,74.4,0,99.2,42.954860027708,74.4,85.909720055416,24.8,85.909720055416,0,42.954860027708" stroke="#000" stroke-opacity="0.02" fill-opacity="0.124" fill="#ddd" transform="translate(-49.6, 472.50346030479)" /><polyline points="0,42.954860027708,24.8,0,74.4,0,99.2,42.954860027708,74.4,85.909720055416,24.8,85.909720055416,0,42.954860027708" stroke="#000" stroke-opacity="0.02" fill-opacity="0.124" fill="#ddd" transform="translate(396.8, 472.50346030479)" /><polyline points="0,42.954860027708,24.8,0,74.4,0,99.2,42.954860027708,74.4,85.909720055416,24.8,85.909720055416,0,42.954860027708" stroke="#000" stroke-opacity="0.02" fill-opacity="0.10666666666667" fill="#ddd" transform="translate(24.8, 0)" /><polyline points="0,42.954860027708,24.8,0,74.4,0,99.2,42.954860027708,74.4,85.909720055416,24.8,85.909720055416,0,42.954860027708" stroke="#000" stroke-opacity="0.02" fill-opacity="0.10666666666667" fill="#ddd" transform="translate(24.8, 515.4583203325)" /><polyline points="0,42.954860027708,24.8,0,74.4,0,99.2,42.954860027708,74.4,85.909720055416,24.8,85.909720055416,0,42.954860027708" stroke="#000" stroke-opacity="0.02" fill-opacity="0.046" fill="#222" transform="translate(99.2, -42.954860027708)" /><polyline points="0,42.954860027708,24.8,0,74.4,0,99.2,42.954860027708,74.4,85.909720055416,24.8,85.909720055416,0,42.954860027708" stroke="#000" stroke-opacity="0.02" fill-opacity="0.046" fill="#222" transform="translate(99.2, 472.50346030479)" /><polyline points="0,42.954860027708,24.8,0,74.4,0,99.2,42.954860027708,74.4,85.909720055416,24.8,85.909720055416,0,42.954860027708" stroke="#000" stroke-opacity="0.02" fill-opacity="0.063333333333333" fill="#222" transform="translate(173.6, 0)" /><polyline points="0,42.954860027708,24.8,0,74.4,0,99.2,42.954860027708,74.4,85.909720055416,24.8,85.909720055416,0,42.954860027708" stroke="#000" stroke-opacity="0.02" fill-opacity="0.063333333333333" fill="#222" transform="translate(173.6, 515.4583203325)" /><polyline points="0,42.954860027708,24.8,0,74.4,0,99.2,42.954860027708,74.4,85.909720055416,24.8,85.909720055416,0,42.954860027708" stroke="#000" stroke-opacity="0.02" fill-opacity="0.028666666666667" fill="#222" transform="translate(248, -42.954860027708)" /><polyline points="0,42.954860027708,24.8,0,74.4,0,99.2,42.954860027708,74.4,85.909720055416,24.8,85.909720055416,0,42.954860027708" stroke="#000" stroke-opacity="0.02" fill-opacity="0.028666666666667" fill="#222" transform="translate(248, 472.50346030479)" /><polyline points="0,42.954860027708,24.8,0,74.4,0,99.2,42.954860027708,74.4,85.909720055416,24.8,85.909720055416,0,42.954860027708" stroke="#000" stroke-opacity="0.02" fill-opacity="0.037333333333333" fill="#ddd" transform="translate(322.4, 0)" /><polyline points="0,42.954860027708,24.8,0,74.4,0,99.2,42.954860027708,74.4,85.909720055416,24.8,85.909720055416,0,42.954860027708" stroke="#000" stroke-opacity="0.02" fill-opacity="0.037333333333333" fill="#ddd" transform="translate(322.4, 515.4583203325)" /><polyline points="0,42.954860027708,24.8,0,74.4,0,99.2,42.954860027708,74.4,85.909720055416,24.8,85.909720055416,0,42.954860027708" stroke="#000" stroke-opacity="0.02" fill-opacity="0.15" fill="#222" transform="translate(-49.6, 42.954860027708)" /><polyline points="0,42.954860027708,24.8,0,74.4,0,99.2,42.954860027708,74.4,85.909720055416,24.8,85.909720055416,0,42.954860027708" stroke="#000" stroke-opacity="0.02" fill-opacity="0.15" fill="#222" transform="translate(396.8, 42.954860027708)" /><polyline points="0,42.954860027708,24.8,0,74.4,0,99.2,42.954860027708,74.4,85.909720055416,24.8,85.909720055416,0,42.954860027708" stroke="#000" stroke-opacity="0.02" fill-opacity="0.054666666666667" fill="#ddd" transform="translate(24.8, 85.909720055416)" /><polyline points="0,42.954860027708,24.8,0,74.4,0,99.2,42.954860027708,74.4,85.909720055416,24.8,85.909720055416,0,42.954860027708" stroke="#000" stroke-opacity="0.02" fill-opacity="0.13266666666667" fill="#222" transform="translate(99.2, 42.954860027708)" /><polyline points="0,42.954860027708,24.8,0,74.4,0,99.2,42.954860027708,74.4,85.909720055416,24.8,85.909720055416,0,42.954860027708" stroke="#000" stroke-opacity="0.02" fill-opacity="0.15" fill="#222" transform="translate(173.6, 85.909720055416)" /><polyline points="0,42.954860027708,24.8,0,74.4,0,99.2,42.954860027708,74.4,85.909720055416,24.8,85.909720055416,0,42.954860027708" stroke="#000" stroke-opacity="0.02" fill-opacity="0.10666666666667" fill="#ddd" transform="translate(248, 42.954860027708)" /><polyline points="0,42.954860027708,24.8,0,74.4,0,99.2,42.954860027708,74.4,85.909720055416,24.8,85.909720055416,0,42.954860027708" stroke="#000" stroke-opacity="0.02" fill-opacity="0.098" fill="#222" transform="translate(322.4, 85.909720055416)" /><polyline points="0,42.954860027708,24.8,0,74.4,0,99.2,42.954860027708,74.4,85.909720055416,24.8,85.909720055416,0,42.954860027708" stroke="#000" stroke-opacity="0.02" fill-opacity="0.063333333333333" fill="#222" transform="translate(-49.6, 128.86458008312)" /><polyline points="0,42.954860027708,24.8,0,74.4,0,99.2,42.954860027708,74.4,85.909720055416,24.8,85.909720055416,0,42.954860027708" stroke="#000" stroke-opacity="0.02" fill-opacity="0.063333333333333" fill="#222" transform="translate(396.8, 128.86458008312)" /><polyline points="0,42.954860027708,24.8,0,74.4,0,99.2,42.954860027708,74.4,85.909720055416,24.8,85.909720055416,0,42.954860027708" stroke="#000" stroke-opacity="0.02" fill-opacity="0.10666666666667" fill="#ddd" transform="translate(24.8, 171.81944011083)" /><polyline points="0,42.954860027708,24.8,0,74.4,0,99.2,42.954860027708,74.4,85.909720055416,24.8,85.909720055416,0,42.954860027708" stroke="#000" stroke-opacity="0.02" fill-opacity="0.02" fill="#ddd" transform="translate(99.2, 128.86458008312)" /><polyline points="0,42.954860027708,24.8,0,74.4,0,99.2,42.954860027708,74.4,85.909720055416,24.8,85.909720055416,0,42.954860027708" stroke="#000" stroke-opacity="0.02" fill-opacity="0.046" fill="#222" transform="translate(173.6, 171.81944011083)" /><polyline points="0,42.954860027708,24.8,0,74.4,0,99.2,42.954860027708,74.4,85.909720055416,24.8,85.909720055416,0,42.954860027708" stroke="#000" stroke-opacity="0.02" fill-opacity="0.028666666666667" fill="#222" transform="translate(248, 128.86458008312)" /><polyline points="0,42.954860027708,24.8,0,74.4,0,99.2,42.954860027708,74.4,85.909720055416,24.8,85.909720055416,0,42.954860027708" stroke="#000" stroke-opacity="0.02" fill-opacity="0.072" fill="#ddd" transform="translate(322.4, 171.81944011083)" /><polyline points="0,42.954860027708,24.8,0,74.4,0,99.2,42.954860027708,74.4,85.909720055416,24.8,85.909720055416,0,42.954860027708" stroke="#000" stroke-opacity="0.02" fill-opacity="0.098" fill="#222" transform="translate(-49.6, 214.77430013854)" /><polyline points="0,42.954860027708,24.8,0,74.4,0,99.2,42.954860027708,74.4,85.909720055416,24.8,85.909720055416,0,42.954860027708" stroke="#000" stroke-opacity="0.02" fill-opacity="0.098" fill="#222" transform="translate(396.8, 214.77430013854)" /><polyline points="0,42.954860027708,24.8,0,74.4,0,99.2,42.954860027708,74.4,85.909720055416,24.8,85.909720055416,0,42.954860027708" stroke="#000" stroke-opacity="0.02" fill-opacity="0.124" fill="#ddd" transform="translate(24.8, 257.72916016625)" /><polyline points="0,42.954860027708,24.8,0,74.4,0,99.2,42.954860027708,74.4,85.909720055416,24.8,85.909720055416,0,42.954860027708" stroke="#000" stroke-opacity="0.02" fill-opacity="0.063333333333333" fill="#222" transform="translate(99.2, 214.77430013854)" /><polyline points="0,42.954860027708,24.8,0,74.4,0,99.2,42.954860027708,74.4,85.909720055416,24.8,85.909720055416,0,42.954860027708" stroke="#000" stroke-opacity="0.02" fill-opacity="0.10666666666667" fill="#ddd" transform="translate(173.6, 257.72916016625)" /><polyline points="0,42.954860027708,24.8,0,74.4,0,99.2,42.954860027708,74.4,85.909720055416,24.8,85.909720055416,0,42.954860027708" stroke="#000" stroke-opacity="0.02" fill-opacity="0.072" fill="#ddd" transform="translate(248, 214.77430013854)" /><polyline points="0,42.954860027708,24.8,0,74.4,0,99.2,42.954860027708,74.4,85.909720055416,24.8,85.909720055416,0,42.954860027708" stroke="#000" stroke-opacity="0.02" fill-opacity="0.080666666666667" fill="#222" transform="translate(322.4, 257.72916016625)" /><polyline points="0,42.954860027708,24.8,0,74.4,0,99.2,42.954860027708,74.4,85.909720055416,24.8,85.909720055416,0,42.954860027708" stroke="#000" stroke-opacity="0.02" fill-opacity="0.02" fill="#ddd" transform="translate(-49.6, 300.68402019396)" /><polyline points="0,42.954860027708,24.8,0,74.4,0,99.2,42.954860027708,74.4,85.909720055416,24.8,85.909720055416,0,42.954860027708" stroke="#000" stroke-opacity="0.02" fill-opacity="0.02" fill="#ddd" transform="translate(396.8, 300.68402019396)" /><polyline points="0,42.954860027708,24.8,0,74.4,0,99.2,42.954860027708,74.4,85.909720055416,24.8,85.909720055416,0,42.954860027708" stroke="#000" stroke-opacity="0.02" fill-opacity="0.10666666666667" fill="#ddd" transform="translate(24.8, 343.63888022167)" /><polyline points="0,42.954860027708,24.8,0,74.4,0,99.2,42.954860027708,74.4,85.909720055416,24.8,85.909720055416,0,42.954860027708" stroke="#000" stroke-opacity="0.02" fill-opacity="0.054666666666667" fill="#ddd" transform="translate(99.2, 300.68402019396)" /><polyline points="0,42.954860027708,24.8,0,74.4,0,99.2,42.954860027708,74.4,85.909720055416,24.8,85.909720055416,0,42.954860027708" stroke="#000" stroke-opacity="0.02" fill-opacity="0.124" fill="#ddd" transform="translate(173.6, 343.63888022167)" /><polyline points="0,42.954860027708,24.8,0,74.4,0,99.2,42.954860027708,74.4,85.909720055416,24.8,85.909720055416,0,42.954860027708" stroke="#000" stroke-opacity="0.02" fill-opacity="0.098" fill="#222" transform="translate(248, 300.68402019396)" /><polyline points="0,42.954860027708,24.8,0,74.4,0,99.2,42.954860027708,74.4,85.909720055416,24.8,85.909720055416,0,42.954860027708" stroke="#000" stroke-opacity="0.02" fill-opacity="0.028666666666667" fill="#222" transform="translate(322.4, 343.63888022167)" /><polyline points="0,42.954860027708,24.8,0,74.4,0,99.2,42.954860027708,74.4,85.909720055416,24.8,85.909720055416,0,42.954860027708" stroke="#000" stroke-opacity="0.02" fill-opacity="0.10666666666667" fill="#ddd" transform="translate(-49.6, 386.59374024937)" /><polyline points="0,42.954860027708,24.8,0,74.4,0,99.2,42.954860027708,74.4,85.909720055416,24.8,85.909720055416,0,42.954860027708" stroke="#000" stroke-opacity="0.02" fill-opacity="0.10666666666667" fill="#ddd" transform="translate(396.8, 386.59374024937)" /><polyline points="0,42.954860027708,24.8,0,74.4,0,99.2,42.954860027708,74.4,85.909720055416,24.8,85.909720055416,0,42.954860027708" stroke="#000" stroke-opacity="0.02" fill-opacity="0.028666666666667" fill="#222" transform="translate(24.8, 429.54860027708)" /><polyline points="0,42.954860027708,24.8,0,74.4,0,99.2,42.954860027708,74.4,85.909720055416,24.8,85.909720055416,0,42.954860027708" stroke="#000" stroke-opacity="0.02" fill-opacity="0.098" fill="#222" transform="translate(99.2, 386.59374024937)" /><polyline points="0,42.954860027708,24.8,0,74.4,0,99.2,42.954860027708,74.4,85.909720055416,24.8,85.909720055416,0,42.954860027708" stroke="#000" stroke-opacity="0.02" fill-opacity="0.11533333333333" fill="#222" transform="translate(173.6, 429.54860027708)" /><polyline points="0,42.954860027708,24.8,0,74.4,0,99.2,42.954860027708,74.4,85.909720055416,24.8,85.909720055416,0,42.954860027708" stroke="#000" stroke-opacity="0.02" fill-opacity="0.046" fill="#222" transform="translate(248, 386.59374024937)" /><polyline points="0,42.954860027708,24.8,0,74.4,0,99.2,42.954860027708,74.4,85.909720055416,24.8,85.909720055416,0,42.954860027708" stroke="#000" stroke-opacity="0.02" fill-opacity="0.02" fill="#ddd" transform="translate(322.4, 429.54860027708)" /></svg>