<?xml version="1.0"?><svg xmlns="http://www.w3.org/2000/svg" width="500" height="500"><rect x="0" y="0" width="100%" height="100%" fill="rgb(129, 236, 236)" /><rect x="0" y="19" width="100%" height="14" opacity="0.098" fill="#222" /><rect x="0" y="45" width="100%" height="8" opacity="0.046" fill="#222" /><rect x="0" y="68" width="100%" height="11" opacity="0.072" fill="#ddd" /><rect x="0" y="88" width="100%" height="17" opacity="0.124" fill="#ddd" /><rect x="0" y="124" width="100%" height="5" opacity="0.02" fill="#ddd" /><rect x="0" y="143" width="100%" height="13" opacity="0.089333333333333" fill="#ddd" /><rect x="0" y="168" width="100%" height="12" opacity="0.080666666666667" fill="#222" /><rect x="0" y="193" width="100%" height="16" opacity="0.11533333333333" fill="#222" /><rect x="0" y="225" width="100%" height="12" opacity="0.080666666666667" fill="#222" /><rect x="0" y="245" width="100%" height="7" opacity="0.037333333333333" fill="#ddd" /><rect x="0" y="264" width="100%" height="20" opacity="0.15" fill="#222" /><rect x="0" y="303" width="100%" height="10" opacity="0.063333333333333" fill="#222" /><rect x="0" y="325" width="100%" height="18" opacity="0.13266666666667" fill="#222" /><rect x="0" y="356" width="100%" height="15" opacity="0.10666666666667" fill="#ddd" /><rect x="0" y="382" width="100%" height="5" opacity="0.02" fill="#ddd" /><rect x="0" y="399" width="100%" height="16" opacity="0.11533333333333" fill="#222" /><rect x="0" y="434" width="100%" height="14" opacity="0.098" fill="#222" /><rect x="0" y="461" width="100%" height="6" opacity="0.028666666666667" fill="#222" /><rect x="0" y="484" width="100%" height="16" opacity="0.11533333333333" fill="#222" /><rect x="19" y="0" width="14" height="100%" opacity="0.098" fill="#222" /><rect x="45" y="0" width="8" height="100%" opacity="0.046" fill="#222" /><rect x="68" y="0" width="11" height="100%" opacity="0.072" fill="#ddd" /><rect x="88" y="0" width="17" height="100%" opacity="0.124" fill="#ddd" /><rect x="124" y="0" width="5" height="100%" opacity="0.02" fill="#ddd" /><rect x="143" y="0" width="13" height="100%" opacity="0.089333333333333" fill="#ddd" /><rect x="168" y="0" width="12" height="100%" opacity="0.080666666666667" fill="#222" /><rect x="193" y="0" width="16" height="100%" opacity="0.11533333333333" fill="#222" /><rect x="225" y="0" width="12" height="100%" opacity="0.080666666666667" fill="#222" /><rect x="245" y="0" width="7" height="100%" opacity="0.037333333333333" fill="#ddd" /><rect x="264" y="0" width="20" height="100%" opacity="0.15" fill="#222" /><rect x="303" y="0" width="10" height="100%" opacity="0.063333333333333" fill="#222" /><rect x="325" y="0" width="18" height="100%" opacity="0.13266666666667" fill="#222" /><rect x="356" y="0" width="15" height="100%" opacity="0.10666666666667" fill="#ddd" /><rect x="382" y="0" width="5" height="100%" opacity="0.02" fill="#ddd" /><rect x="399" y="0" width="16" height="100%" opacity="0.11533333333333" fill="#222" /><rect x="434" y="0" width="14" height="100%" opacity="0.098" fill="#222" /><rect x="461" y="0" width="6" height="100%" opacity="0.028666666666667" fill="#222" /><rect x="484" y="0" width="16" height="100%" opacity="0.11533333333333" fill="#222" /></svg>